<?xml version="1.0" encoding="UTF-8"?>
<!DOCTYPE svg PUBLIC "-//W3C//DTD SVG 1.1//EN" "http://www.w3.org/Graphics/SVG/1.1/DTD/svg11.dtd">
<svg xmlns="http://www.w3.org/2000/svg" version="1.1" width="215px" height="365px" style="shape-rendering:geometricPrecision; text-rendering:geometricPrecision; image-rendering:optimizeQuality; fill-rule:evenodd; clip-rule:evenodd" xmlns:xlink="http://www.w3.org/1999/xlink">
<g><path style="opacity:1" fill="#0d0d04" d="M 65.5,-0.5 C 68.1667,-0.5 70.8333,-0.5 73.5,-0.5C 78.445,8.55471 83.7783,17.388 89.5,26C 95.9327,24.6018 102.433,23.1018 109,21.5C 113.25,22.9435 115.917,25.9435 117,30.5C 117.372,36.1087 115.706,41.1087 112,45.5C 107.876,50.4667 103.042,54.4667 97.5,57.5C 96.506,58.9989 96.506,60.6656 97.5,62.5C 93.8062,58.1396 89.8062,54.1396 85.5,50.5C 87.0603,50.5191 88.5603,50.8524 90,51.5C 92.2619,50.2875 94.4285,48.9541 96.5,47.5C 95.4324,49.7402 93.7658,51.5736 91.5,53C 92.5,54 93.5,55 94.5,56C 103.092,52.0894 109.925,45.9227 115,37.5C 115.667,35.1667 115.667,32.8333 115,30.5C 107.373,29.0281 100.207,30.3614 93.5,34.5C 87.0515,36.8909 80.7181,39.5575 74.5,42.5C 86.1455,35.0183 98.8121,29.6849 112.5,26.5C 111.73,24.7282 110.397,23.7282 108.5,23.5C 90.3267,28.3892 73.3267,35.8892 57.5,46C 50.3225,51.0229 43.3225,56.1895 36.5,61.5C 37.7927,59.7041 39.2927,58.0375 41,56.5C 41.7805,55.0563 41.6139,53.723 40.5,52.5C 36.7787,50.7575 33.6121,51.4241 31,54.5C 27.3173,53.136 23.484,52.4693 19.5,52.5C 18.8333,52.5 18.5,52.1667 18.5,51.5C 21.7181,50.4733 25.0515,50.3066 28.5,51C 24.5229,46.2014 21.1896,41.0347 18.5,35.5C 17.291,33.5654 17.4577,31.5654 19,29.5C 32.0625,15.5623 47.5625,5.56228 65.5,-0.5 Z"/></g>
<g><path style="opacity:1" fill="#c2712f" d="M 18.5,35.5 C 18.6079,33.2166 19.4412,31.2166 21,29.5C 34.9509,14.9429 51.7842,5.77628 71.5,2C 74.5956,4.02869 76.2623,6.86203 76.5,10.5C 56.1099,15.9467 38.9432,26.6134 25,42.5C 22.5997,40.2707 20.433,37.9374 18.5,35.5 Z"/></g>
<g><path style="opacity:1" fill="#bd662b" d="M 96.5,47.5 C 101.244,42.1139 99.9108,39.7806 92.5,40.5C 93.209,39.596 94.209,39.2627 95.5,39.5C 95.6347,37.4458 94.968,35.7791 93.5,34.5C 100.207,30.3614 107.373,29.0281 115,30.5C 115.667,32.8333 115.667,35.1667 115,37.5C 109.925,45.9227 103.092,52.0894 94.5,56C 93.5,55 92.5,54 91.5,53C 93.7658,51.5736 95.4324,49.7402 96.5,47.5 Z"/></g>
<g><path style="opacity:1" fill="#be6e2e" d="M 74.5,42.5 C 71.6689,43.0787 69.3356,44.412 67.5,46.5C 65.326,46.7497 63.6594,47.7497 62.5,49.5C 58.9505,50.7232 55.9505,52.7232 53.5,55.5C 49.9485,57.1108 46.9485,59.4442 44.5,62.5C 39.9281,65.5633 35.7615,69.23 32,73.5C 28.6405,71.7984 28.1405,69.7984 30.5,67.5C 32.1394,65.1939 34.1394,63.1939 36.5,61.5C 43.3225,56.1895 50.3225,51.0229 57.5,46C 73.3267,35.8892 90.3267,28.3892 108.5,23.5C 110.397,23.7282 111.73,24.7282 112.5,26.5C 98.8121,29.6849 86.1455,35.0183 74.5,42.5 Z"/></g>
<g><path style="opacity:1" fill="#2b170a" d="M 74.5,42.5 C 72.6644,44.588 70.3311,45.9213 67.5,46.5C 69.3356,44.412 71.6689,43.0787 74.5,42.5 Z"/></g>
<g><path style="opacity:1" fill="#993922" d="M 96.5,47.5 C 94.4285,48.9541 92.2619,50.2875 90,51.5C 88.5603,50.8524 87.0603,50.5191 85.5,50.5C 83.3926,49.5318 81.0593,49.1984 78.5,49.5C 78.5,49.1667 78.5,48.8333 78.5,48.5C 84.3806,45.0593 90.714,43.0593 97.5,42.5C 97.3713,44.2161 97.038,45.8828 96.5,47.5 Z"/></g>
<g><path style="opacity:1" fill="#a14522" d="M 93.5,34.5 C 94.968,35.7791 95.6347,37.4458 95.5,39.5C 94.209,39.2627 93.209,39.596 92.5,40.5C 82.1251,44.5214 72.4584,49.8547 63.5,56.5C 58.6187,58.7094 54.6187,62.0427 51.5,66.5C 48.8655,68.6799 45.8655,70.0132 42.5,70.5C 40.2512,71.0798 38.5846,72.4131 37.5,74.5C 36.3951,75.6005 35.0618,76.2671 33.5,76.5C 33.3505,75.448 33.5172,74.448 34,73.5C 37.7039,69.9643 41.2039,66.2976 44.5,62.5C 46.9485,59.4442 49.9485,57.1108 53.5,55.5C 57.0246,54.2411 60.0246,52.2411 62.5,49.5C 63.6594,47.7497 65.326,46.7497 67.5,46.5C 70.3311,45.9213 72.6644,44.588 74.5,42.5C 80.7181,39.5575 87.0515,36.8909 93.5,34.5 Z"/></g>
<g><path style="opacity:1" fill="#311b0c" d="M 62.5,49.5 C 60.0246,52.2411 57.0246,54.2411 53.5,55.5C 55.9505,52.7232 58.9505,50.7232 62.5,49.5 Z"/></g>
<g><path style="opacity:1" fill="#1f1206" d="M 92.5,40.5 C 99.9108,39.7806 101.244,42.1139 96.5,47.5C 97.038,45.8828 97.3713,44.2161 97.5,42.5C 90.714,43.0593 84.3806,45.0593 78.5,48.5C 73.4831,51.1953 68.4831,53.862 63.5,56.5C 72.4584,49.8547 82.1251,44.5214 92.5,40.5 Z"/></g>
<g><path style="opacity:1" fill="#849433" d="M 36.5,61.5 C 34.1394,63.1939 32.1394,65.1939 30.5,67.5C 27.8431,67.838 25.5098,67.1713 23.5,65.5C 22.707,66.3554 23.0403,67.1887 24.5,68C 25.5,68.3333 26.5,68.6667 27.5,69C 24.3054,69.1805 21.3054,69.6805 18.5,70.5C 17.1667,70.5 15.8333,70.5 14.5,70.5C 13.8418,63.6804 15.5085,57.6804 19.5,52.5C 23.484,52.4693 27.3173,53.136 31,54.5C 33.6121,51.4241 36.7787,50.7575 40.5,52.5C 41.6139,53.723 41.7805,55.0563 41,56.5C 39.2927,58.0375 37.7927,59.7041 36.5,61.5 Z"/></g>
<g><path style="opacity:1" fill="#702e24" d="M 78.5,48.5 C 78.5,48.8333 78.5,49.1667 78.5,49.5C 73.3076,53.3649 69.9743,58.5316 68.5,65C 63.497,68.0023 58.1636,70.1689 52.5,71.5C 50.2458,70.286 49.9125,68.6194 51.5,66.5C 55.7977,63.5367 59.7977,60.2034 63.5,56.5C 68.4831,53.862 73.4831,51.1953 78.5,48.5 Z"/></g>
<g><path style="opacity:0.199" fill="#1b1e14" d="M 97.5,57.5 C 102.554,59.0819 107.887,60.5819 113.5,62C 116.054,64.0634 118.72,65.8967 121.5,67.5C 125.824,66.338 129.824,64.5047 133.5,62C 137.175,61.4046 137.342,62.238 134,64.5C 132.85,66.7538 132.516,69.0871 133,71.5C 137.55,65.9744 143.383,63.3077 150.5,63.5C 150.5,64.5 150.5,65.5 150.5,66.5C 147.642,66.5954 145.309,67.7621 143.5,70C 153.886,67.6731 161.886,71.0065 167.5,80C 165.005,79.9223 162.505,79.4223 160,78.5C 157.97,78.9537 156.137,79.6204 154.5,80.5C 152.914,79.8519 151.247,79.3519 149.5,79C 153.397,76.3817 157.564,75.8817 162,77.5C 162.089,75.8866 161.255,74.7199 159.5,74C 153.7,71.8491 147.7,71.0157 141.5,71.5C 141.297,69.6096 141.963,68.1096 143.5,67C 140.27,67.3754 137.603,68.8754 135.5,71.5C 134.18,72.9418 132.514,73.6085 130.5,73.5C 130.104,70.5178 130.771,67.8511 132.5,65.5C 132.167,65.1667 131.833,64.8333 131.5,64.5C 128.737,66.7983 125.57,68.1316 122,68.5C 115.79,65.4837 109.29,63.1503 102.5,61.5C 101.167,61.6667 99.8333,61.8333 98.5,62C 100.97,65.008 101.97,68.1746 101.5,71.5C 99.8946,68.6223 98.5612,65.6223 97.5,62.5C 96.506,60.6656 96.506,58.9989 97.5,57.5 Z"/></g>
<g><path style="opacity:1" fill="#7d9133" d="M 135.5,71.5 C 141.835,76.3468 147.002,82.3468 151,89.5C 153.435,97.1962 151.935,104.03 146.5,110C 144.421,110.808 142.421,110.641 140.5,109.5C 136.771,104.433 133.438,99.0993 130.5,93.5C 127.377,89.875 124.044,86.375 120.5,83C 119.552,82.5172 118.552,82.3505 117.5,82.5C 117.5,81.5 117.5,80.5 117.5,79.5C 116.5,79.5 115.5,79.5 114.5,79.5C 114.649,78.448 114.483,77.448 114,76.5C 113.667,76.8333 113.333,77.1667 113,77.5C 111.066,72.3547 107.9,71.3547 103.5,74.5C 102.575,73.6431 101.908,72.6431 101.5,71.5C 101.97,68.1746 100.97,65.008 98.5,62C 99.8333,61.8333 101.167,61.6667 102.5,61.5C 109.29,63.1503 115.79,65.4837 122,68.5C 125.57,68.1316 128.737,66.7983 131.5,64.5C 131.833,64.8333 132.167,65.1667 132.5,65.5C 130.771,67.8511 130.104,70.5178 130.5,73.5C 132.514,73.6085 134.18,72.9418 135.5,71.5 Z"/></g>
<g><path style="opacity:1" fill="#29160f" d="M 63.5,56.5 C 59.7977,60.2034 55.7977,63.5367 51.5,66.5C 54.6187,62.0427 58.6187,58.7094 63.5,56.5 Z"/></g>
<g><path style="opacity:1" fill="#f7f7f7" d="M 78.5,63.5 C 80.1667,63.5 81.8333,63.5 83.5,63.5C 83.9731,64.9063 84.9731,65.573 86.5,65.5C 89.1985,69.1902 91.8652,72.8569 94.5,76.5C 95.0916,79.1272 95.4249,81.7938 95.5,84.5C 91.3729,84.6349 88.7062,86.6349 87.5,90.5C 86.1802,93.8987 86.1802,97.3987 87.5,101C 84.8199,101.335 82.4866,100.501 80.5,98.5C 75.7632,89.7479 73.9299,80.4146 75,70.5C 75.6529,67.8608 76.8196,65.5274 78.5,63.5 Z"/></g>
<g><path style="opacity:1" fill="#879733" d="M 85.5,50.5 C 89.8062,54.1396 93.8062,58.1396 97.5,62.5C 98.5612,65.6223 99.8946,68.6223 101.5,71.5C 101.908,72.6431 102.575,73.6431 103.5,74.5C 107.9,71.3547 111.066,72.3547 113,77.5C 113.333,77.1667 113.667,76.8333 114,76.5C 114.483,77.448 114.649,78.448 114.5,79.5C 115.5,79.5 116.5,79.5 117.5,79.5C 117.5,80.5 117.5,81.5 117.5,82.5C 118.552,82.3505 119.552,82.5172 120.5,83C 124.044,86.375 127.377,89.875 130.5,93.5C 133.438,99.0993 136.771,104.433 140.5,109.5C 142.421,110.641 144.421,110.808 146.5,110C 151.935,104.03 153.435,97.1962 151,89.5C 147.002,82.3468 141.835,76.3468 135.5,71.5C 137.603,68.8754 140.27,67.3754 143.5,67C 141.963,68.1096 141.297,69.6096 141.5,71.5C 147.7,71.0157 153.7,71.8491 159.5,74C 161.255,74.7199 162.089,75.8866 162,77.5C 157.564,75.8817 153.397,76.3817 149.5,79C 151.247,79.3519 152.914,79.8519 154.5,80.5C 161.331,87.8285 164.498,96.4951 164,106.5C 161.909,107.5 160.243,106.833 159,104.5C 158.368,109.966 157.201,115.3 155.5,120.5C 155.167,120.833 154.833,121.167 154.5,121.5C 153.542,119.376 152.375,117.376 151,115.5C 149.5,120.665 147.333,125.498 144.5,130C 141.21,130.589 139.71,129.089 140,125.5C 138.08,129.756 135.08,133.089 131,135.5C 133.549,126.765 134.549,117.765 134,108.5C 132.76,105.022 131.26,101.689 129.5,98.5C 125.541,91.6815 119.874,89.0148 112.5,90.5C 106.94,91.8666 102.44,94.8666 99,99.5C 98.8238,95.3123 98.3238,91.3123 97.5,87.5C 98.055,83.2935 97.055,79.6269 94.5,76.5C 93.2826,71.6387 90.6159,67.972 86.5,65.5C 86.0269,64.0937 85.0269,63.427 83.5,63.5C 81.8333,63.5 80.1667,63.5 78.5,63.5C 76.1119,64.2187 74.6119,65.8854 74,68.5C 73.3333,74.5 73.3333,80.5 74,86.5C 75.2426,89.883 76.2426,93.2163 77,96.5C 69.9776,92.0446 62.4776,88.5446 54.5,86C 56.5431,82.7466 58.7098,79.5799 61,76.5C 64.38,74.283 67.2133,71.6163 69.5,68.5C 69.5,67.8333 69.5,67.1667 69.5,66.5C 70.6776,62.8241 72.1776,59.1574 74,55.5C 76.8194,51.5071 80.6527,49.8404 85.5,50.5 Z"/></g>
<g><path style="opacity:1" fill="#1f2118" d="M 86.5,65.5 C 90.6159,67.972 93.2826,71.6387 94.5,76.5C 91.8652,72.8569 89.1985,69.1902 86.5,65.5 Z"/></g>
<g><path style="opacity:1" fill="#181916" d="M 83.5,63.5 C 85.0269,63.427 86.0269,64.0937 86.5,65.5C 84.9731,65.573 83.9731,64.9063 83.5,63.5 Z"/></g>
<g><path style="opacity:1" fill="#1a1106" d="M 78.5,49.5 C 81.0593,49.1984 83.3926,49.5318 85.5,50.5C 80.6527,49.8404 76.8194,51.5071 74,55.5C 72.1776,59.1574 70.6776,62.8241 69.5,66.5C 63.8697,69.1558 58.203,71.4891 52.5,73.5C 49.7664,70.8574 46.4331,69.8574 42.5,70.5C 45.8655,70.0132 48.8655,68.6799 51.5,66.5C 49.9125,68.6194 50.2458,70.286 52.5,71.5C 58.1636,70.1689 63.497,68.0023 68.5,65C 69.9743,58.5316 73.3076,53.3649 78.5,49.5 Z"/></g>
<g><path style="opacity:1" fill="#909f34" d="M 20.5,71.5 C 29.0721,71.2392 33.0721,75.4059 32.5,84C 32.8387,89.1363 31.8387,93.9696 29.5,98.5C 29.1996,89.9863 25.1996,84.4863 17.5,82C 21.3881,84.2215 24.2214,87.3882 26,91.5C 26.6667,96.8333 26.6667,102.167 26,107.5C 24.661,110.094 22.4944,111.594 19.5,112C 19.7284,112.399 20.0618,112.565 20.5,112.5C 20.6809,115.761 19.5143,118.761 17,121.5C 16.1841,120.177 15.0174,119.511 13.5,119.5C 3.26999,109.628 -0.230005,97.6276 3,83.5C 5.95455,75.4304 11.7879,71.4304 20.5,71.5 Z"/></g>
<g><path style="opacity:1" fill="#303714" d="M 42.5,70.5 C 41.4154,72.5869 39.7488,73.9202 37.5,74.5C 38.5846,72.4131 40.2512,71.0798 42.5,70.5 Z"/></g>
<g><path style="opacity:1" fill="#a34222" d="M 69.5,66.5 C 69.5,67.1667 69.5,67.8333 69.5,68.5C 63.8961,71.607 59.0628,75.607 55,80.5C 54.5,80.3333 54,80.1667 53.5,80C 54.8422,77.5444 54.5089,75.3778 52.5,73.5C 58.203,71.4891 63.8697,69.1558 69.5,66.5 Z"/></g>
<g><path style="opacity:1" fill="#48501b" d="M 37.5,74.5 C 35.9956,79.779 34.9956,85.1124 34.5,90.5C 34.7744,85.737 34.441,81.0704 33.5,76.5C 35.0618,76.2671 36.3951,75.6005 37.5,74.5 Z"/></g>
<g><path style="opacity:1" fill="#28271c" d="M 94.5,76.5 C 97.055,79.6269 98.055,83.2935 97.5,87.5C 95.5976,86.4891 93.5976,86.3224 91.5,87C 90.2949,88.3756 88.9616,89.5423 87.5,90.5C 88.7062,86.6349 91.3729,84.6349 95.5,84.5C 95.4249,81.7938 95.0916,79.1272 94.5,76.5 Z"/></g>
<g><path style="opacity:1" fill="#bca063" d="M 97.5,87.5 C 97.5,88.8333 97.5,90.1667 97.5,91.5C 92.9882,91.4681 90.9882,93.8014 91.5,98.5C 91.5507,100.1 91.8841,101.6 92.5,103C 89.6168,103.795 88.1168,102.629 88,99.5C 87.502,96.5184 87.3354,93.5184 87.5,90.5C 88.9616,89.5423 90.2949,88.3756 91.5,87C 93.5976,86.3224 95.5976,86.4891 97.5,87.5 Z"/></g>
<g><path style="opacity:1" fill="#1e1e0c" d="M 44.5,62.5 C 41.2039,66.2976 37.7039,69.9643 34,73.5C 33.5172,74.448 33.3505,75.448 33.5,76.5C 34.441,81.0704 34.7744,85.737 34.5,90.5C 33.6377,95.448 31.6377,99.7813 28.5,103.5C 28.3272,105.038 27.9938,106.538 27.5,108C 29.7918,111.435 29.9585,114.935 28,118.5C 27.3457,119.696 26.8457,119.696 26.5,118.5C 27.7378,115.834 27.7378,113.168 26.5,110.5C 24.8273,112.086 22.8273,112.753 20.5,112.5C 20.0618,112.565 19.7284,112.399 19.5,112C 22.4944,111.594 24.661,110.094 26,107.5C 26.6667,102.167 26.6667,96.8333 26,91.5C 24.2214,87.3882 21.3881,84.2215 17.5,82C 25.1996,84.4863 29.1996,89.9863 29.5,98.5C 31.8387,93.9696 32.8387,89.1363 32.5,84C 33.0721,75.4059 29.0721,71.2392 20.5,71.5C 20.1583,70.6618 19.4916,70.3284 18.5,70.5C 21.3054,69.6805 24.3054,69.1805 27.5,69C 26.5,68.6667 25.5,68.3333 24.5,68C 23.0403,67.1887 22.707,66.3554 23.5,65.5C 25.5098,67.1713 27.8431,67.838 30.5,67.5C 28.1405,69.7984 28.6405,71.7984 32,73.5C 35.7615,69.23 39.9281,65.5633 44.5,62.5 Z"/></g>
<g><path style="opacity:1" fill="#34310c" d="M 112.5,90.5 C 119.874,89.0148 125.541,91.6815 129.5,98.5C 128.833,98.5 128.5,98.8333 128.5,99.5C 125.69,94.3559 121.356,91.6893 115.5,91.5C 114.791,90.596 113.791,90.2627 112.5,90.5 Z"/></g>
<g><path style="opacity:1" fill="#171509" d="M 78.5,63.5 C 76.8196,65.5274 75.6529,67.8608 75,70.5C 73.9299,80.4146 75.7632,89.7479 80.5,98.5C 82.4866,100.501 84.8199,101.335 87.5,101C 86.1802,97.3987 86.1802,93.8987 87.5,90.5C 87.3354,93.5184 87.502,96.5184 88,99.5C 88.1168,102.629 89.6168,103.795 92.5,103C 91.8841,101.6 91.5507,100.1 91.5,98.5C 90.9882,93.8014 92.9882,91.4681 97.5,91.5C 97.5,90.1667 97.5,88.8333 97.5,87.5C 98.3238,91.3123 98.8238,95.3123 99,99.5C 102.44,94.8666 106.94,91.8666 112.5,90.5C 113.791,90.2627 114.791,90.596 115.5,91.5C 113.901,91.2322 112.568,91.5655 111.5,92.5C 108.996,93.5839 106.663,94.9172 104.5,96.5C 100.943,100.444 96.6097,103.111 91.5,104.5C 85.7442,103.472 80.4109,101.472 75.5,98.5C 67.6275,91.0654 58.2941,87.8987 47.5,89C 40.9006,93.3572 37.2339,99.5239 36.5,107.5C 35.8333,107.5 35.5,107.167 35.5,106.5C 36.2925,101.957 37.7925,97.6236 40,93.5C 44,88.8333 48,84.1667 52,79.5C 52.4955,77.5273 52.6621,75.5273 52.5,73.5C 54.5089,75.3778 54.8422,77.5444 53.5,80C 54,80.1667 54.5,80.3333 55,80.5C 59.0628,75.607 63.8961,71.607 69.5,68.5C 67.2133,71.6163 64.38,74.283 61,76.5C 58.7098,79.5799 56.5431,82.7466 54.5,86C 62.4776,88.5446 69.9776,92.0446 77,96.5C 76.2426,93.2163 75.2426,89.883 74,86.5C 73.3333,80.5 73.3333,74.5 74,68.5C 74.6119,65.8854 76.1119,64.2187 78.5,63.5 Z M 49.5,85.5 C 50.5268,84.1522 51.8602,83.6522 53.5,84C 52.4366,85.1882 51.1033,85.6882 49.5,85.5 Z"/></g>
<g><path style="opacity:1" fill="#e7b000" d="M 115.5,91.5 C 121.356,91.6893 125.69,94.3559 128.5,99.5C 131.252,106.848 132.252,114.514 131.5,122.5C 122.381,114.299 115.714,104.299 111.5,92.5C 112.568,91.5655 113.901,91.2322 115.5,91.5 Z"/></g>
<g><path style="opacity:1" fill="#dd930e" d="M 75.5,98.5 C 75.1156,103.392 73.6156,108.058 71,112.5C 64.4746,117.754 61.3079,124.588 61.5,133C 62.8333,134.667 62.8333,136.333 61.5,138C 62.1667,138.333 62.8333,138.667 63.5,139C 62.6919,141.088 61.6919,143.088 60.5,145C 60.8541,146.626 60.8541,148.459 60.5,150.5C 59.209,150.263 58.209,150.596 57.5,151.5C 45.7136,143.604 38.7136,132.604 36.5,118.5C 36.5,114.833 36.5,111.167 36.5,107.5C 37.2339,99.5239 40.9006,93.3572 47.5,89C 58.2941,87.8987 67.6275,91.0654 75.5,98.5 Z"/></g>
<g><path style="opacity:1" fill="#e6aa00" d="M 51.5,93.5 C 71.5159,94.5138 74.3493,101.847 60,115.5C 58.1957,120.58 56.1957,125.58 54,130.5C 50.2556,134.037 46.9223,133.37 44,128.5C 35.9495,114.219 38.4495,102.552 51.5,93.5 Z"/></g>
<g><path style="opacity:1" fill="#da8a11" d="M 104.5,96.5 C 105.256,98.2666 105.923,100.1 106.5,102C 106.095,102.945 105.428,103.612 104.5,104C 106.9,104.186 109.234,104.686 111.5,105.5C 110.675,106.386 109.675,106.719 108.5,106.5C 101.602,104.546 97.7688,107.213 97,114.5C 98.1764,112.804 99.343,111.138 100.5,109.5C 101.461,111.265 101.795,113.265 101.5,115.5C 101.633,122.067 98.9662,127.233 93.5,131C 90.248,132.566 87.248,134.399 84.5,136.5C 82.9826,136.511 81.8159,137.177 81,138.5C 78.1639,143.685 75.3306,148.851 72.5,154C 67.0802,155.13 62.0802,154.297 57.5,151.5C 58.209,150.596 59.209,150.263 60.5,150.5C 60.8541,148.459 60.8541,146.626 60.5,145C 61.6919,143.088 62.6919,141.088 63.5,139C 62.8333,138.667 62.1667,138.333 61.5,138C 62.8333,136.333 62.8333,134.667 61.5,133C 61.3079,124.588 64.4746,117.754 71,112.5C 73.6156,108.058 75.1156,103.392 75.5,98.5C 80.4109,101.472 85.7442,103.472 91.5,104.5C 96.6097,103.111 100.943,100.444 104.5,96.5 Z"/></g>
<g><path style="opacity:1" fill="#24270e" d="M 8.5,90.5 C 9.18136,92.1585 10.0147,93.8251 11,95.5C 11.3076,94.6919 11.8076,94.0253 12.5,93.5C 13.0772,99.1374 14.2439,104.471 16,109.5C 13.0953,105.12 10.762,100.453 9,95.5C 8.50649,93.8659 8.33982,92.1992 8.5,90.5 Z"/></g>
<g><path style="opacity:1" fill="#1e1503" d="M 108.5,106.5 C 106.708,106.366 105.042,106.699 103.5,107.5C 102.29,107.932 101.29,108.599 100.5,109.5C 99.343,111.138 98.1764,112.804 97,114.5C 97.7688,107.213 101.602,104.546 108.5,106.5 Z"/></g>
<g><path style="opacity:1" fill="#df9909" d="M 111.5,92.5 C 115.714,104.299 122.381,114.299 131.5,122.5C 131.133,127.008 130.133,131.341 128.5,135.5C 122.731,133.554 117.231,134.554 112,138.5C 111.617,137.944 111.117,137.611 110.5,137.5C 113.463,126.783 111.13,117.45 103.5,109.5C 103.5,108.833 103.5,108.167 103.5,107.5C 105.042,106.699 106.708,106.366 108.5,106.5C 109.675,106.719 110.675,106.386 111.5,105.5C 109.234,104.686 106.9,104.186 104.5,104C 105.428,103.612 106.095,102.945 106.5,102C 105.923,100.1 105.256,98.2666 104.5,96.5C 106.663,94.9172 108.996,93.5839 111.5,92.5 Z"/></g>
<g><path style="opacity:1" fill="#839333" d="M 42.5,70.5 C 46.4331,69.8574 49.7664,70.8574 52.5,73.5C 52.6621,75.5273 52.4955,77.5273 52,79.5C 48,84.1667 44,88.8333 40,93.5C 37.7925,97.6236 36.2925,101.957 35.5,106.5C 34.1667,111.5 34.1667,116.5 35.5,121.5C 35.0629,123.074 34.0629,124.241 32.5,125C 33.4158,125.278 34.0825,125.778 34.5,126.5C 31.5671,129.922 29.5671,133.922 28.5,138.5C 27.5,138.833 26.5,139.167 25.5,139.5C 20.243,138.205 15.5763,135.872 11.5,132.5C 10.9031,127.706 11.5698,123.373 13.5,119.5C 15.0174,119.511 16.1841,120.177 17,121.5C 19.5143,118.761 20.6809,115.761 20.5,112.5C 22.8273,112.753 24.8273,112.086 26.5,110.5C 27.7378,113.168 27.7378,115.834 26.5,118.5C 26.8457,119.696 27.3457,119.696 28,118.5C 29.9585,114.935 29.7918,111.435 27.5,108C 27.9938,106.538 28.3272,105.038 28.5,103.5C 31.6377,99.7813 33.6377,95.448 34.5,90.5C 34.9956,85.1124 35.9956,79.779 37.5,74.5C 39.7488,73.9202 41.4154,72.5869 42.5,70.5 Z"/></g>
<g><path style="opacity:1" fill="#6f4a09" d="M 103.5,107.5 C 103.5,108.167 103.5,108.833 103.5,109.5C 102.833,111.5 102.167,113.5 101.5,115.5C 101.795,113.265 101.461,111.265 100.5,109.5C 101.29,108.599 102.29,107.932 103.5,107.5 Z"/></g>
<g><path style="opacity:1" fill="#0f0c01" d="M 103.5,109.5 C 111.13,117.45 113.463,126.783 110.5,137.5C 106.112,146.022 99.1115,149.189 89.5,147C 86.9698,146.109 84.6365,144.942 82.5,143.5C 80.8663,140.262 81.8663,138.095 85.5,137C 85.2716,136.601 84.9382,136.435 84.5,136.5C 87.248,134.399 90.248,132.566 93.5,131C 98.9662,127.233 101.633,122.067 101.5,115.5C 102.167,113.5 102.833,111.5 103.5,109.5 Z"/></g>
<g><path style="opacity:1" fill="#494313" d="M 35.5,106.5 C 35.5,107.167 35.8333,107.5 36.5,107.5C 36.5,111.167 36.5,114.833 36.5,118.5C 35.596,119.209 35.2627,120.209 35.5,121.5C 34.1667,116.5 34.1667,111.5 35.5,106.5 Z"/></g>
<g><path style="opacity:1" fill="#bc0075" d="M 11.5,132.5 C 16.9631,139.235 23.9631,142.068 32.5,141C 31.1194,143.364 30.1194,145.864 29.5,148.5C 29.1667,148.5 28.8333,148.5 28.5,148.5C 20.2235,151.216 13.2235,149.383 7.5,143C 8.74059,139.371 10.0739,135.871 11.5,132.5 Z"/></g>
<g><path style="opacity:1" fill="#afb3b4" d="M 17.5,150.5 C 19.2922,151.309 21.2922,151.809 23.5,152C 21.5273,152.495 19.5273,152.662 17.5,152.5C 18.5249,165.021 24.8582,173.855 36.5,179C 41.1042,180.061 45.7709,180.727 50.5,181C 49.8333,181.333 49.1667,181.667 48.5,182C 50.3451,183.423 52.3451,184.59 54.5,185.5C 53.9747,186.192 53.3081,186.692 52.5,187C 52.6191,188.145 52.9524,189.312 53.5,190.5C 51.1432,190.337 48.8098,190.503 46.5,191C 53.1969,192.539 59.8635,194.206 66.5,196C 68.3963,197.065 68.563,197.898 67,198.5C 56.7889,196.591 46.6223,194.424 36.5,192C 8.36983,187.618 -2.13017,171.451 5,143.5C 5.33333,143.167 5.66667,142.833 6,142.5C 8.37952,147.272 12.2129,149.939 17.5,150.5 Z"/></g>
<g><path style="opacity:1" fill="#ba0074" d="M 124.5,157.5 C 124.663,159.857 124.497,162.19 124,164.5C 122.022,167.595 120.522,170.928 119.5,174.5C 117.38,172.991 115.713,173.324 114.5,175.5C 113.504,175.586 112.671,175.252 112,174.5C 109.925,169.59 106.425,166.257 101.5,164.5C 97.5498,164.283 94.8832,162.283 93.5,158.5C 98.9039,157.269 104.237,156.936 109.5,157.5C 110.031,160.237 110.864,162.904 112,165.5C 112.494,163.866 112.66,162.199 112.5,160.5C 112.993,158.194 113.326,155.861 113.5,153.5C 117.39,151.781 120.89,149.448 124,146.5C 124.499,150.152 124.665,153.818 124.5,157.5 Z"/></g>
<g><path style="opacity:0.021" fill="#22251d" d="M 200.5,153.5 C 202.337,153.639 202.67,154.306 201.5,155.5C 200.702,155.043 200.369,154.376 200.5,153.5 Z"/></g>
<g><path style="opacity:1" fill="#718428" d="M 113.5,153.5 C 113.326,155.861 112.993,158.194 112.5,160.5C 111.272,159.694 110.272,158.694 109.5,157.5C 109.894,155.29 111.227,153.957 113.5,153.5 Z"/></g>
<g><path style="opacity:1" fill="#111405" d="M 109.5,157.5 C 110.272,158.694 111.272,159.694 112.5,160.5C 112.66,162.199 112.494,163.866 112,165.5C 110.864,162.904 110.031,160.237 109.5,157.5 Z"/></g>
<g><path style="opacity:1" fill="#0b0b05" d="M 138.5,157.5 C 140.117,161.614 140.951,165.947 141,170.5C 142.464,171.459 143.297,172.792 143.5,174.5C 142.509,176.807 141.176,178.807 139.5,180.5C 137.612,182.988 136.945,185.988 137.5,189.5C 136.227,196.702 132.394,198.368 126,194.5C 124.789,198.735 123.289,202.735 121.5,206.5C 122.54,201.476 123.373,196.476 124,191.5C 122.48,195.352 119.647,197.185 115.5,197C 117.708,201.053 119.375,205.219 120.5,209.5C 120.607,211.379 120.107,211.712 119,210.5C 117.999,205.499 116.166,200.833 113.5,196.5C 108.564,200.973 104.898,199.973 102.5,193.5C 104.296,194.793 105.963,196.293 107.5,198C 108.5,198.667 109.5,198.667 110.5,198C 108.376,196.878 106.543,195.378 105,193.5C 102.473,189.104 99.9731,184.771 97.5,180.5C 97.3343,176.154 97.501,171.821 98,167.5C 99.1451,166.364 100.312,165.364 101.5,164.5C 106.425,166.257 109.925,169.59 112,174.5C 112.671,175.252 113.504,175.586 114.5,175.5C 116.291,176.391 118.124,177.391 120,178.5C 122.221,172.39 125.221,166.723 129,161.5C 131.604,158.266 134.771,156.933 138.5,157.5 Z"/></g>
<g><path style="opacity:1" fill="#9da1a2" d="M 152.5,197.5 C 151.732,198.263 151.232,199.263 151,200.5C 150.576,198.385 149.409,197.552 147.5,198C 146.359,198.741 146.359,199.575 147.5,200.5C 147.043,201.298 146.376,201.631 145.5,201.5C 145.196,200.85 144.863,200.183 144.5,199.5C 153.296,190.701 151.629,184.368 139.5,180.5C 141.176,178.807 142.509,176.807 143.5,174.5C 143.297,172.792 142.464,171.459 141,170.5C 140.951,165.947 140.117,161.614 138.5,157.5C 138.389,156.883 138.056,156.383 137.5,156C 132.423,155.047 128.589,156.881 126,161.5C 125.51,160.207 125.343,158.873 125.5,157.5C 125.733,155.938 126.4,154.605 127.5,153.5C 127.5,152.833 127.833,152.5 128.5,152.5C 131.667,149.502 135,146.669 138.5,144C 144.431,142.075 148.598,143.908 151,149.5C 151.333,155.5 151.667,161.5 152,167.5C 152.219,166.062 152.719,164.729 153.5,163.5C 156.853,167.813 157.353,172.48 155,177.5C 154.667,174.833 154.333,172.167 154,169.5C 153.667,169.833 153.333,170.167 153,170.5C 152.5,179.494 152.334,188.494 152.5,197.5 Z"/></g>
<g><path style="opacity:1" fill="#9a9e9f" d="M 92.5,175.5 C 90.8058,176.527 89.4725,177.861 88.5,179.5C 84.3604,177.884 80.8604,175.217 78,171.5C 76.4419,172.345 75.4419,171.679 75,169.5C 66.2331,170.938 57.2331,172.272 48,173.5C 44.969,172.961 41.969,172.294 39,171.5C 38.0546,171.905 37.3879,172.572 37,173.5C 36.6012,173.272 36.4346,172.938 36.5,172.5C 32.8145,166.358 31.6478,159.691 33,152.5C 35.8808,150.972 38.2141,151.638 40,154.5C 41.8604,161.004 45.6937,165.504 51.5,168C 49.0465,166.26 47.5465,164.093 47,161.5C 50.2959,163.304 53.7959,163.804 57.5,163C 56.1398,161.062 56.4732,159.396 58.5,158C 60.8333,157.333 63.1667,157.333 65.5,158C 68.3489,161.016 71.3489,163.85 74.5,166.5C 75.5431,163.579 77.2097,161.079 79.5,159C 80.5,158.333 81.5,158.333 82.5,159C 88.2731,163.05 91.6064,168.55 92.5,175.5 Z"/></g>
<g><path style="opacity:1" fill="#31373b" d="M 138.5,157.5 C 134.771,156.933 131.604,158.266 129,161.5C 125.221,166.723 122.221,172.39 120,178.5C 118.124,177.391 116.291,176.391 114.5,175.5C 115.713,173.324 117.38,172.991 119.5,174.5C 120.522,170.928 122.022,167.595 124,164.5C 124.497,162.19 124.663,159.857 124.5,157.5C 124.833,157.5 125.167,157.5 125.5,157.5C 125.343,158.873 125.51,160.207 126,161.5C 128.589,156.881 132.423,155.047 137.5,156C 138.056,156.383 138.389,156.883 138.5,157.5 Z"/></g>
<g><path style="opacity:1" fill="#1a1913" d="M 154.5,80.5 C 161.948,85.5463 165.948,92.713 166.5,102C 166.9,105.698 165.567,108.531 162.5,110.5C 161.522,110.023 160.689,109.357 160,108.5C 159.792,112.918 159.126,117.251 158,121.5C 156.491,123.919 154.325,124.919 151.5,124.5C 151.657,123.127 151.49,121.793 151,120.5C 149.734,124.644 147.901,128.477 145.5,132C 142.793,134.072 140.627,133.572 139,130.5C 136.943,134.223 133.943,136.89 130,138.5C 127.515,143.42 126.682,148.42 127.5,153.5C 126.4,154.605 125.733,155.938 125.5,157.5C 125.167,157.5 124.833,157.5 124.5,157.5C 124.665,153.818 124.499,150.152 124,146.5C 120.89,149.448 117.39,151.781 113.5,153.5C 111.227,153.957 109.894,155.29 109.5,157.5C 104.237,156.936 98.9039,157.269 93.5,158.5C 94.8832,162.283 97.5498,164.283 101.5,164.5C 99.2776,164.178 97.4443,164.845 96,166.5C 95.3333,170.167 95.3333,173.833 96,177.5C 96.2321,178.737 96.7321,179.737 97.5,180.5C 98.8825,184.934 100.549,189.267 102.5,193.5C 97.533,188.224 94.6996,181.891 94,174.5C 93.6174,175.056 93.1174,175.389 92.5,175.5C 91.6064,168.55 88.2731,163.05 82.5,159C 81.5,158.333 80.5,158.333 79.5,159C 77.2097,161.079 75.5431,163.579 74.5,166.5C 71.3489,163.85 68.3489,161.016 65.5,158C 63.1667,157.333 60.8333,157.333 58.5,158C 56.4732,159.396 56.1398,161.062 57.5,163C 53.7959,163.804 50.2959,163.304 47,161.5C 47.5465,164.093 49.0465,166.26 51.5,168C 45.6937,165.504 41.8604,161.004 40,154.5C 38.2141,151.638 35.8808,150.972 33,152.5C 31.6478,159.691 32.8145,166.358 36.5,172.5C 33.9374,170.388 32.104,167.721 31,164.5C 30.2807,159.799 30.4474,155.133 31.5,150.5C 31.2528,149.287 30.5862,148.62 29.5,148.5C 30.1194,145.864 31.1194,143.364 32.5,141C 23.9631,142.068 16.9631,139.235 11.5,132.5C 15.5763,135.872 20.243,138.205 25.5,139.5C 26.5,139.167 27.5,138.833 28.5,138.5C 29.5671,133.922 31.5671,129.922 34.5,126.5C 34.0825,125.778 33.4158,125.278 32.5,125C 34.0629,124.241 35.0629,123.074 35.5,121.5C 35.2627,120.209 35.596,119.209 36.5,118.5C 38.7136,132.604 45.7136,143.604 57.5,151.5C 62.0802,154.297 67.0802,155.13 72.5,154C 75.3306,148.851 78.1639,143.685 81,138.5C 81.8159,137.177 82.9826,136.511 84.5,136.5C 84.9382,136.435 85.2716,136.601 85.5,137C 81.8663,138.095 80.8663,140.262 82.5,143.5C 81.5041,143.414 80.6708,143.748 80,144.5C 79.2652,146.871 78.4318,149.205 77.5,151.5C 84.454,154.757 91.7874,156.09 99.5,155.5C 102.059,155.802 104.393,155.468 106.5,154.5C 116.939,151.726 124.272,145.392 128.5,135.5C 130.133,131.341 131.133,127.008 131.5,122.5C 132.252,114.514 131.252,106.848 128.5,99.5C 128.5,98.8333 128.833,98.5 129.5,98.5C 131.26,101.689 132.76,105.022 134,108.5C 134.549,117.765 133.549,126.765 131,135.5C 135.08,133.089 138.08,129.756 140,125.5C 139.71,129.089 141.21,130.589 144.5,130C 147.333,125.498 149.5,120.665 151,115.5C 152.375,117.376 153.542,119.376 154.5,121.5C 154.833,121.167 155.167,120.833 155.5,120.5C 157.201,115.3 158.368,109.966 159,104.5C 160.243,106.833 161.909,107.5 164,106.5C 164.498,96.4951 161.331,87.8285 154.5,80.5 Z M 76.5,153.5 C 81.0253,155.301 85.692,156.801 90.5,158C 93.5445,160.912 94.7111,164.412 94,168.5C 91.5,163.333 87.6667,159.5 82.5,157C 78.422,156.72 75.5887,158.553 74,162.5C 72.1266,160.291 69.96,158.458 67.5,157C 71.1224,157.087 74.1224,155.92 76.5,153.5 Z M 34.5,126.5 C 36.9541,131.408 39.4541,136.408 42,141.5C 46.7662,147.105 52.2662,151.772 58.5,155.5C 56.8076,157.359 55.3076,159.359 54,161.5C 51.1413,160.827 48.308,159.993 45.5,159C 43.5,156.333 41.5,153.667 39.5,151C 37.5,150.167 35.5,149.333 33.5,148.5C 32.8537,144.719 33.5204,141.053 35.5,137.5C 34.9661,135.386 33.9661,133.552 32.5,132C 33.464,130.275 34.1307,128.441 34.5,126.5 Z"/></g>
<g><path style="opacity:1" fill="#482d0c" d="M 106.5,154.5 C 104.393,155.468 102.059,155.802 99.5,155.5C 99.3893,154.883 99.056,154.383 98.5,154C 105.897,153.281 111.064,149.448 114,142.5C 113.2,147.66 110.367,151.493 105.5,154C 105.728,154.399 106.062,154.565 106.5,154.5 Z"/></g>
<g><path style="opacity:1" fill="#d78313" d="M 128.5,135.5 C 124.272,145.392 116.939,151.726 106.5,154.5C 106.062,154.565 105.728,154.399 105.5,154C 110.367,151.493 113.2,147.66 114,142.5C 111.064,149.448 105.897,153.281 98.5,154C 99.056,154.383 99.3893,154.883 99.5,155.5C 91.7874,156.09 84.454,154.757 77.5,151.5C 78.4318,149.205 79.2652,146.871 80,144.5C 80.6708,143.748 81.5041,143.414 82.5,143.5C 84.6365,144.942 86.9698,146.109 89.5,147C 99.1115,149.189 106.112,146.022 110.5,137.5C 111.117,137.611 111.617,137.944 112,138.5C 117.231,134.554 122.731,133.554 128.5,135.5 Z"/></g>
<g><path style="opacity:1" fill="#af016d" d="M 31.5,134.5 C 32.844,136.185 32.6773,137.852 31,139.5C 30.3603,137.735 30.5269,136.068 31.5,134.5 Z"/></g>
<g><path style="opacity:1" fill="#be3732" d="M 107.5,127.5 C 108.5,127.5 109.5,127.5 110.5,127.5C 110.446,133.228 108.779,138.395 105.5,143C 103.35,144.411 101.016,145.245 98.5,145.5C 97.8115,137.543 100.811,131.543 107.5,127.5 Z"/></g>
<g><path style="opacity:1" fill="#607e8e" d="M 101.5,164.5 C 100.312,165.364 99.1451,166.364 98,167.5C 97.501,171.821 97.3343,176.154 97.5,180.5C 96.7321,179.737 96.2321,178.737 96,177.5C 95.3333,173.833 95.3333,170.167 96,166.5C 97.4443,164.845 99.2776,164.178 101.5,164.5 Z"/></g>
<g><path style="opacity:1" fill="#a4a8a9" d="M 139.5,171.5 C 142.701,172.839 143.035,174.506 140.5,176.5C 139.548,174.955 139.215,173.288 139.5,171.5 Z"/></g>
<g><path style="opacity:1" fill="#a7abac" d="M 28.5,148.5 C 28.8333,148.5 29.1667,148.5 29.5,148.5C 30.5862,148.62 31.2528,149.287 31.5,150.5C 30.4474,155.133 30.2807,159.799 31,164.5C 32.104,167.721 33.9374,170.388 36.5,172.5C 36.4346,172.938 36.6012,173.272 37,173.5C 37.3879,172.572 38.0546,171.905 39,171.5C 41.969,172.294 44.969,172.961 48,173.5C 57.2331,172.272 66.2331,170.938 75,169.5C 75.4419,171.679 76.4419,172.345 78,171.5C 80.8604,175.217 84.3604,177.884 88.5,179.5C 88.3505,180.552 88.5172,181.552 89,182.5C 91.209,185.037 93.3757,187.537 95.5,190C 93.7038,192.633 91.7038,195.133 89.5,197.5C 91.3068,200.219 93.6402,202.219 96.5,203.5C 95.448,203.351 94.448,203.517 93.5,204C 97.9376,206.882 99.6043,210.715 98.5,215.5C 94.2538,208.026 89.2538,201.026 83.5,194.5C 80.8231,193.515 78.1565,192.515 75.5,191.5C 72.9929,187.772 69.9929,185.272 66.5,184C 65.1667,183.333 63.8333,183.333 62.5,184C 64.7615,184.701 65.7615,185.868 65.5,187.5C 62.8823,187.605 60.2156,187.439 57.5,187C 58.6405,187.741 58.6405,188.575 57.5,189.5C 58.2427,190.182 58.9094,190.849 59.5,191.5C 57.2646,191.795 55.2646,191.461 53.5,190.5C 52.9524,189.312 52.6191,188.145 52.5,187C 53.3081,186.692 53.9747,186.192 54.5,185.5C 52.3451,184.59 50.3451,183.423 48.5,182C 49.1667,181.667 49.8333,181.333 50.5,181C 45.7709,180.727 41.1042,180.061 36.5,179C 24.8582,173.855 18.5249,165.021 17.5,152.5C 19.5273,152.662 21.5273,152.495 23.5,152C 21.2922,151.809 19.2922,151.309 17.5,150.5C 20.5184,150.665 23.5184,150.498 26.5,150C 27.4158,149.722 28.0825,149.222 28.5,148.5 Z"/></g>
<g><path style="opacity:1" fill="#a2a7a8" d="M 98.5,215.5 C 99.1667,215.5 99.5,215.833 99.5,216.5C 100.931,221.661 100.431,226.661 98,231.5C 93.7602,238.712 89.5935,245.879 85.5,253C 85.8333,253.333 86.1667,253.667 86.5,254C 82.6725,262.156 78.6725,270.323 74.5,278.5C 74.2172,279.289 73.7172,279.956 73,280.5C 72.6884,274.801 72.1884,269.134 71.5,263.5C 73.8536,249.138 77.3536,235.138 82,221.5C 82.1922,223.577 82.6922,225.577 83.5,227.5C 84.8032,224.355 84.8032,221.355 83.5,218.5C 81.4697,209.603 76.803,202.437 69.5,197C 75.5696,198.54 81.2363,200.874 86.5,204C 78.4713,197.608 69.4713,193.441 59.5,191.5C 58.9094,190.849 58.2427,190.182 57.5,189.5C 58.6405,188.575 58.6405,187.741 57.5,187C 60.2156,187.439 62.8823,187.605 65.5,187.5C 65.7615,185.868 64.7615,184.701 62.5,184C 63.8333,183.333 65.1667,183.333 66.5,184C 69.9929,185.272 72.9929,187.772 75.5,191.5C 78.1565,192.515 80.8231,193.515 83.5,194.5C 89.2538,201.026 94.2538,208.026 98.5,215.5 Z"/></g>
<g><path style="opacity:1" fill="#1e201d" d="M 92.5,175.5 C 90.8996,177.571 90.3996,179.905 91,182.5C 99.1998,186.626 99.5332,191.293 92,196.5C 91.3333,197.167 91.3333,197.833 92,198.5C 98.951,201.269 105.784,204.435 112.5,208C 115.561,209.373 117.394,211.54 118,214.5C 111.722,209.111 104.556,205.444 96.5,203.5C 93.6402,202.219 91.3068,200.219 89.5,197.5C 91.7038,195.133 93.7038,192.633 95.5,190C 93.3757,187.537 91.209,185.037 89,182.5C 88.5172,181.552 88.3505,180.552 88.5,179.5C 89.4725,177.861 90.8058,176.527 92.5,175.5 Z"/></g>
<g><path style="opacity:1" fill="#4b626c" d="M 97.5,180.5 C 99.9731,184.771 102.473,189.104 105,193.5C 106.543,195.378 108.376,196.878 110.5,198C 109.5,198.667 108.5,198.667 107.5,198C 105.963,196.293 104.296,194.793 102.5,193.5C 100.549,189.267 98.8825,184.934 97.5,180.5 Z"/></g>
<g><path style="opacity:1" fill="#8a9934" d="M 57.5,238.5 C 55.0199,239.912 52.6866,241.578 50.5,243.5C 48.5293,236.263 47.196,228.93 46.5,221.5C 47.4536,216.586 48.6203,211.586 50,206.5C 54.061,200.777 58.7277,200.11 64,204.5C 64.6494,215.308 63.6494,225.975 61,236.5C 59.8873,237.305 58.7206,237.972 57.5,238.5 Z"/></g>
<g><path style="opacity:1" fill="#abafb0" d="M 102.5,193.5 C 104.898,199.973 108.564,200.973 113.5,196.5C 116.166,200.833 117.999,205.499 119,210.5C 120.107,211.712 120.607,211.379 120.5,209.5C 121.404,208.791 121.737,207.791 121.5,206.5C 123.289,202.735 124.789,198.735 126,194.5C 132.394,198.368 136.227,196.702 137.5,189.5C 138.317,187.031 138.817,184.365 139,181.5C 142,183.5 145,185.5 148,187.5C 148.635,189.635 148.301,191.635 147,193.5C 141.126,199.043 134.959,204.21 128.5,209C 123.898,213.094 119.898,217.594 116.5,222.5C 116.5,223.167 116.5,223.833 116.5,224.5C 112.86,222.186 108.86,220.686 104.5,220C 103.511,217.842 101.844,216.675 99.5,216.5C 99.5,215.833 99.1667,215.5 98.5,215.5C 99.6043,210.715 97.9376,206.882 93.5,204C 94.448,203.517 95.448,203.351 96.5,203.5C 104.556,205.444 111.722,209.111 118,214.5C 117.394,211.54 115.561,209.373 112.5,208C 105.784,204.435 98.951,201.269 92,198.5C 91.3333,197.833 91.3333,197.167 92,196.5C 99.5332,191.293 99.1998,186.626 91,182.5C 90.3996,179.905 90.8996,177.571 92.5,175.5C 93.1174,175.389 93.6174,175.056 94,174.5C 94.6996,181.891 97.533,188.224 102.5,193.5 Z"/></g>
<g><path style="opacity:1" fill="#b90173" d="M 121.5,206.5 C 121.737,207.791 121.404,208.791 120.5,209.5C 119.375,205.219 117.708,201.053 115.5,197C 119.647,197.185 122.48,195.352 124,191.5C 123.373,196.476 122.54,201.476 121.5,206.5 Z"/></g>
<g><path style="opacity:1" fill="#abafb0" d="M 151.5,243.5 C 148.813,243.664 146.146,243.497 143.5,243C 142.426,242.261 141.759,241.261 141.5,240C 146.851,227.466 148.184,214.632 145.5,201.5C 146.376,201.631 147.043,201.298 147.5,200.5C 146.359,199.575 146.359,198.741 147.5,198C 149.409,197.552 150.576,198.385 151,200.5C 151.232,199.263 151.732,198.263 152.5,197.5C 153.222,197.082 153.722,196.416 154,195.5C 159.984,202.114 161.151,209.614 157.5,218C 157.944,219.762 158.444,219.595 159,217.5C 160.073,223.941 161.573,230.274 163.5,236.5C 160.718,240.892 156.718,243.225 151.5,243.5 Z"/></g>
<g><path style="opacity:1" fill="#aaaeaf" d="M 139.5,239.5 C 136.382,240.128 133.216,239.795 130,238.5C 127.684,240.459 125.684,240.459 124,238.5C 122.59,239.787 121.09,240.954 119.5,242C 120.774,242.977 120.774,243.811 119.5,244.5C 118.738,242.738 117.404,241.738 115.5,241.5C 112.281,241.776 109.615,243.109 107.5,245.5C 106.387,246.946 106.22,248.613 107,250.5C 107.422,252.426 108.589,253.426 110.5,253.5C 112.292,254.309 114.292,254.809 116.5,255C 113.647,256.53 112.98,258.697 114.5,261.5C 114.378,264.126 113.378,266.126 111.5,267.5C 111.008,265.181 110.008,263.181 108.5,261.5C 107.065,262.913 106.065,264.58 105.5,266.5C 105.607,264.621 105.107,264.288 104,265.5C 99.5914,273.244 93.758,279.744 86.5,285C 85.2068,285.49 83.8734,285.657 82.5,285.5C 81.7069,281.041 79.0402,278.708 74.5,278.5C 78.6725,270.323 82.6725,262.156 86.5,254C 86.1667,253.667 85.8333,253.333 85.5,253C 89.5935,245.879 93.7602,238.712 98,231.5C 100.431,226.661 100.931,221.661 99.5,216.5C 101.844,216.675 103.511,217.842 104.5,220C 108.86,220.686 112.86,222.186 116.5,224.5C 116.167,228.833 118.167,230.833 122.5,230.5C 126.158,230.065 127.825,227.899 127.5,224C 127.534,220.034 125.534,218.034 121.5,218C 128.208,211.568 135.375,205.735 143,200.5C 144.163,202.285 144.83,204.285 145,206.5C 145.975,217.986 144.141,228.986 139.5,239.5 Z"/></g>
<g><path style="opacity:1" fill="#f2e000" d="M 122.5,230.5 C 118.167,230.833 116.167,228.833 116.5,224.5C 116.5,223.833 116.5,223.167 116.5,222.5C 119.386,219.087 122.553,218.753 126,221.5C 127.02,225.447 125.853,228.447 122.5,230.5 Z"/></g>
<g><path style="opacity:1" fill="#819333" d="M 197.5,261.5 C 197.5,262.5 197.5,263.5 197.5,264.5C 196.868,269.305 194.201,272.472 189.5,274C 184.493,276.256 179.493,276.756 174.5,275.5C 187.905,267.2 187.571,266.7 173.5,274C 166.676,275.945 161.176,274.112 157,268.5C 155.704,270.815 153.704,271.815 151,271.5C 148.966,271.646 147.299,270.98 146,269.5C 145.333,266.833 145.333,264.167 146,261.5C 147.553,257.701 148.886,257.701 150,261.5C 150.687,259.432 150.52,257.432 149.5,255.5C 153.302,254.903 156.968,253.903 160.5,252.5C 161.711,254.422 163.044,256.255 164.5,258C 165.167,258.667 165.833,258.667 166.5,258C 162.229,254.578 162.563,253.245 167.5,254C 166.584,253.626 165.75,253.126 165,252.5C 164.892,248.535 164.059,244.868 162.5,241.5C 163.865,238.325 164.865,234.992 165.5,231.5C 168.607,230.353 171.607,230.686 174.5,232.5C 177.718,230.476 181.218,229.143 185,228.5C 187.034,228.354 188.701,229.02 190,230.5C 193.008,235.053 194.174,240.053 193.5,245.5C 192.167,245.5 190.833,245.5 189.5,245.5C 188.85,231.174 188.017,231.507 187,246.5C 186.595,249.78 185.095,252.28 182.5,254C 187.161,257.242 192.161,259.742 197.5,261.5 Z"/></g>
<g><path style="opacity:1" fill="#8b8f90" d="M 83.5,218.5 C 84.8032,221.355 84.8032,224.355 83.5,227.5C 82.6922,225.577 82.1922,223.577 82,221.5C 77.3536,235.138 73.8536,249.138 71.5,263.5C 69.1017,259.779 65.7684,257.112 61.5,255.5C 59.6547,248.642 60.8213,242.309 65,236.5C 72.8174,232.182 78.3174,225.849 81.5,217.5C 82.2508,218.376 82.7508,219.376 83,220.5C 83.4643,219.906 83.631,219.239 83.5,218.5 Z"/></g>
<g><path style="opacity:1" fill="#1b1b13" d="M 18.5,51.5 C 18.5,52.1667 18.8333,52.5 19.5,52.5C 15.5085,57.6804 13.8418,63.6804 14.5,70.5C 15.8333,70.5 17.1667,70.5 18.5,70.5C 19.4916,70.3284 20.1583,70.6618 20.5,71.5C 11.7879,71.4304 5.95455,75.4304 3,83.5C -0.230005,97.6276 3.26999,109.628 13.5,119.5C 11.5698,123.373 10.9031,127.706 11.5,132.5C 10.0739,135.871 8.74059,139.371 7.5,143C 13.2235,149.383 20.2235,151.216 28.5,148.5C 28.0825,149.222 27.4158,149.722 26.5,150C 23.5184,150.498 20.5184,150.665 17.5,150.5C 12.2129,149.939 8.37952,147.272 6,142.5C 5.66667,142.833 5.33333,143.167 5,143.5C -2.13017,171.451 8.36983,187.618 36.5,192C 46.6223,194.424 56.7889,196.591 67,198.5C 68.563,197.898 68.3963,197.065 66.5,196C 59.8635,194.206 53.1969,192.539 46.5,191C 48.8098,190.503 51.1432,190.337 53.5,190.5C 55.2646,191.461 57.2646,191.795 59.5,191.5C 69.4713,193.441 78.4713,197.608 86.5,204C 81.2363,200.874 75.5696,198.54 69.5,197C 76.803,202.437 81.4697,209.603 83.5,218.5C 83.631,219.239 83.4643,219.906 83,220.5C 82.7508,219.376 82.2508,218.376 81.5,217.5C 78.3174,225.849 72.8174,232.182 65,236.5C 60.8213,242.309 59.6547,248.642 61.5,255.5C 65.7684,257.112 69.1017,259.779 71.5,263.5C 72.1884,269.134 72.6884,274.801 73,280.5C 73.7172,279.956 74.2172,279.289 74.5,278.5C 79.0402,278.708 81.7069,281.041 82.5,285.5C 81.0665,284.167 79.7332,282.667 78.5,281C 77.2068,280.51 75.8734,280.343 74.5,280.5C 74.7989,282.604 74.4656,284.604 73.5,286.5C 72.8933,286.376 72.56,286.043 72.5,285.5C 71.8244,278.098 70.6578,270.765 69,263.5C 64.7641,256.101 60.0974,255.768 55,262.5C 52.987,269.674 51.987,277.008 52,284.5C 50.7877,288.528 48.621,291.862 45.5,294.5C 45.5,294.167 45.5,293.833 45.5,293.5C 47.1723,290.978 48.6723,288.312 50,285.5C 49.5975,276.38 51.2642,267.713 55,259.5C 56.0195,258.313 57.1861,257.313 58.5,256.5C 59.3275,252.204 59.8275,247.871 60,243.5C 60.7065,241.919 61.5399,240.419 62.5,239C 61.4232,238.53 60.4232,238.697 59.5,239.5C 58.5084,239.672 57.8417,239.338 57.5,238.5C 58.7206,237.972 59.8873,237.305 61,236.5C 63.6494,225.975 64.6494,215.308 64,204.5C 58.7277,200.11 54.061,200.777 50,206.5C 48.6203,211.586 47.4536,216.586 46.5,221.5C 46.7373,220.209 46.404,219.209 45.5,218.5C 45.0285,210.946 47.6952,204.779 53.5,200C 55.8098,199.503 58.1432,199.337 60.5,199.5C 47.8897,197.017 35.223,194.184 22.5,191C 7.50677,184.762 0.173433,173.429 0.5,157C 0.666,150.481 2.166,144.314 5,138.5C 6.06743,137.809 7.23409,137.309 8.5,137C 8.16667,136.667 7.83333,136.333 7.5,136C 8.72813,130.916 9.72813,125.75 10.5,120.5C 7.76459,116.707 5.26459,112.707 3,108.5C 1.41714,104.14 0.250474,99.8064 -0.5,95.5C -0.5,93.8333 -0.5,92.1667 -0.5,90.5C 0.115079,83.5193 3.11508,77.686 8.5,73C 10.0249,71.9914 11.6916,71.4914 13.5,71.5C 11.694,65.2878 12.194,59.2878 15,53.5C 15.8159,52.1772 16.9826,51.5106 18.5,51.5 Z M 60.5,199.5 C 64.1879,199.781 67.8546,200.281 71.5,201C 74.8943,205.398 77.8943,210.065 80.5,215C 77.4996,223.987 71.833,230.32 63.5,234C 66.5432,224.625 67.3766,215.125 66,205.5C 64.6403,202.977 62.807,200.977 60.5,199.5 Z"/></g>
<g><path style="opacity:1" fill="#9b9fa0" d="M 139.5,239.5 C 137.034,245.554 134.368,251.554 131.5,257.5C 131.846,258.696 132.346,258.696 133,257.5C 134.08,255.004 135.414,252.67 137,250.5C 137.667,252.5 137.667,254.5 137,256.5C 133.667,269.684 128.5,282.017 121.5,293.5C 119.309,291.108 117.642,288.442 116.5,285.5C 116.361,279.591 114.695,274.257 111.5,269.5C 111.5,268.833 111.5,268.167 111.5,267.5C 113.378,266.126 114.378,264.126 114.5,261.5C 112.98,258.697 113.647,256.53 116.5,255C 114.292,254.809 112.292,254.309 110.5,253.5C 112.167,253.5 113.833,253.5 115.5,253.5C 120.26,252.056 121.593,249.056 119.5,244.5C 120.774,243.811 120.774,242.977 119.5,242C 121.09,240.954 122.59,239.787 124,238.5C 125.684,240.459 127.684,240.459 130,238.5C 133.216,239.795 136.382,240.128 139.5,239.5 Z"/></g>
<g><path style="opacity:1" fill="#879931" d="M 45.5,293.5 C 44.3121,294.684 43.1455,294.684 42,293.5C 33.0146,279.816 33.3479,266.483 43,253.5C 47.8109,247.842 53.3109,243.176 59.5,239.5C 60.4232,238.697 61.4232,238.53 62.5,239C 61.5399,240.419 60.7065,241.919 60,243.5C 59.8275,247.871 59.3275,252.204 58.5,256.5C 57.1861,257.313 56.0195,258.313 55,259.5C 51.2642,267.713 49.5975,276.38 50,285.5C 48.6723,288.312 47.1723,290.978 45.5,293.5 Z"/></g>
<g><path style="opacity:1" fill="#f0de00" d="M 115.5,241.5 C 119.5,245.5 119.5,249.5 115.5,253.5C 113.833,253.5 112.167,253.5 110.5,253.5C 108.394,251.281 107.394,248.615 107.5,245.5C 109.615,243.109 112.281,241.776 115.5,241.5 Z"/></g>
<g><path style="opacity:1" fill="#242419" d="M 115.5,241.5 C 117.404,241.738 118.738,242.738 119.5,244.5C 121.593,249.056 120.26,252.056 115.5,253.5C 119.5,249.5 119.5,245.5 115.5,241.5 Z"/></g>
<g><path style="opacity:1" fill="#ba9e7e" d="M 197.5,264.5 C 197.5,263.5 197.5,262.5 197.5,261.5C 197.586,260.504 197.252,259.671 196.5,259C 192.948,257.205 189.282,255.705 185.5,254.5C 187.623,252.255 188.623,249.588 188.5,246.5C 196.334,247.087 202.334,250.754 206.5,257.5C 209.133,262.033 209.133,266.533 206.5,271C 203.833,273 201.167,273 198.5,271C 198.612,268.83 198.278,266.664 197.5,264.5 Z"/></g>
<g><path style="opacity:1" fill="#2a2a24" d="M 107.5,245.5 C 107.394,248.615 108.394,251.281 110.5,253.5C 108.589,253.426 107.422,252.426 107,250.5C 106.22,248.613 106.387,246.946 107.5,245.5 Z"/></g>
<g><path style="opacity:1" fill="#171812" d="M 139.5,180.5 C 151.629,184.368 153.296,190.701 144.5,199.5C 144.863,200.183 145.196,200.85 145.5,201.5C 148.184,214.632 146.851,227.466 141.5,240C 141.759,241.261 142.426,242.261 143.5,243C 146.146,243.497 148.813,243.664 151.5,243.5C 151.842,244.338 152.508,244.672 153.5,244.5C 150.713,245.477 147.713,245.81 144.5,245.5C 144.665,247.827 145.331,249.993 146.5,252C 151.558,252.661 156.558,252.328 161.5,251C 162.451,247.943 162.784,244.777 162.5,241.5C 164.059,244.868 164.892,248.535 165,252.5C 165.75,253.126 166.584,253.626 167.5,254C 162.563,253.245 162.229,254.578 166.5,258C 165.833,258.667 165.167,258.667 164.5,258C 163.044,256.255 161.711,254.422 160.5,252.5C 156.968,253.903 153.302,254.903 149.5,255.5C 150.52,257.432 150.687,259.432 150,261.5C 148.886,257.701 147.553,257.701 146,261.5C 145.333,264.167 145.333,266.833 146,269.5C 147.299,270.98 148.966,271.646 151,271.5C 153.704,271.815 155.704,270.815 157,268.5C 161.176,274.112 166.676,275.945 173.5,274C 187.571,266.7 187.905,267.2 174.5,275.5C 173.833,275.5 173.5,275.833 173.5,276.5C 171.517,276.157 170.183,276.824 169.5,278.5C 169.167,278.5 168.833,278.5 168.5,278.5C 167.207,277.355 166.041,277.689 165,279.5C 163.991,281.025 163.491,282.692 163.5,284.5C 160.715,283.916 159.048,284.916 158.5,287.5C 156.9,294.15 159.566,298.65 166.5,301C 168.74,301.977 171.073,302.477 173.5,302.5C 174.338,302.842 174.672,303.508 174.5,304.5C 173.833,304.5 173.5,304.833 173.5,305.5C 173.5,307.5 173.5,309.5 173.5,311.5C 171.899,310.357 171.233,311.024 171.5,313.5C 172.259,322.681 175.926,330.347 182.5,336.5C 184.249,338.531 186.249,338.865 188.5,337.5C 189.167,337.833 189.833,338.167 190.5,338.5C 192.544,339.031 194.211,340.198 195.5,342C 194.451,342.492 193.451,342.326 192.5,341.5C 191.808,342.025 191.308,342.692 191,343.5C 188.882,341.637 186.716,340.97 184.5,341.5C 171.566,332.454 167.233,320.288 171.5,305C 164.693,303.852 159.526,300.352 156,294.5C 153.724,287.925 155.891,284.258 162.5,283.5C 162.081,280.675 163.081,278.509 165.5,277C 162.703,275.767 160.037,274.267 157.5,272.5C 146.383,277.021 141.883,273.354 144,261.5C 145.141,259.391 146.641,257.558 148.5,256C 147.271,254.471 145.771,253.304 144,252.5C 143.453,249.298 142.453,246.298 141,243.5C 140.03,245.274 139.196,247.107 138.5,249C 139.054,259.127 137.054,268.794 132.5,278C 141.754,296.319 137.754,310.986 120.5,322C 127.65,329.468 126.983,336.134 118.5,342C 114.824,343.838 111.158,345.671 107.5,347.5C 103.629,355.433 97.6291,361.1 89.5,364.5C 84.1667,364.5 78.8333,364.5 73.5,364.5C 70.691,362.103 67.3576,360.77 63.5,360.5C 61.1432,360.663 58.8098,360.497 56.5,360C 58.7078,359.809 60.7078,359.309 62.5,358.5C 64.4832,358.843 65.8166,358.176 66.5,356.5C 66.2322,354.901 66.5655,353.568 67.5,352.5C 67.2627,353.791 67.596,354.791 68.5,355.5C 69.5778,358.908 71.9111,360.908 75.5,361.5C 91.3299,363.588 102.163,356.921 108,341.5C 108.333,342.5 108.667,343.5 109,344.5C 114.577,341.916 119.243,338.249 123,333.5C 123.789,331.288 123.622,329.288 122.5,327.5C 121.428,325.429 119.761,324.095 117.5,323.5C 114.161,324.501 110.828,325.501 107.5,326.5C 106.349,332.091 103.016,333.925 97.5,332C 96.0577,331.623 95.0577,330.79 94.5,329.5C 97.7786,330.492 101.112,330.659 104.5,330C 105.337,328.989 105.67,327.822 105.5,326.5C 99.4348,326.739 93.4348,326.239 87.5,325C 82.4783,323.153 77.4783,321.319 72.5,319.5C 72.811,318.522 73.4777,317.855 74.5,317.5C 77.1878,318.513 79.8544,319.513 82.5,320.5C 94.0105,325.508 105.677,325.675 117.5,321C 120.621,319.694 123.287,317.86 125.5,315.5C 129.826,312.191 132.659,307.858 134,302.5C 135.088,294.652 134.421,286.985 132,279.5C 130.007,283.465 128.007,287.465 126,291.5C 124.611,293.227 122.944,294.561 121,295.5C 117.886,293.027 116.386,289.694 116.5,285.5C 117.642,288.442 119.309,291.108 121.5,293.5C 128.5,282.017 133.667,269.684 137,256.5C 137.667,254.5 137.667,252.5 137,250.5C 135.414,252.67 134.08,255.004 133,257.5C 132.346,258.696 131.846,258.696 131.5,257.5C 134.368,251.554 137.034,245.554 139.5,239.5C 144.141,228.986 145.975,217.986 145,206.5C 144.83,204.285 144.163,202.285 143,200.5C 135.375,205.735 128.208,211.568 121.5,218C 125.534,218.034 127.534,220.034 127.5,224C 127.825,227.899 126.158,230.065 122.5,230.5C 125.853,228.447 127.02,225.447 126,221.5C 122.553,218.753 119.386,219.087 116.5,222.5C 119.898,217.594 123.898,213.094 128.5,209C 134.959,204.21 141.126,199.043 147,193.5C 148.301,191.635 148.635,189.635 148,187.5C 145,185.5 142,183.5 139,181.5C 138.817,184.365 138.317,187.031 137.5,189.5C 136.945,185.988 137.612,182.988 139.5,180.5 Z"/></g>
<g><path style="opacity:1" fill="#bc0075" d="M 162.5,241.5 C 162.784,244.777 162.451,247.943 161.5,251C 156.558,252.328 151.558,252.661 146.5,252C 145.331,249.993 144.665,247.827 144.5,245.5C 147.713,245.81 150.713,245.477 153.5,244.5C 156.574,243.698 159.574,242.698 162.5,241.5 Z"/></g>
<g><path style="opacity:1" fill="#23261d" d="M 108.5,261.5 C 110.008,263.181 111.008,265.181 111.5,267.5C 111.5,268.167 111.5,268.833 111.5,269.5C 109.733,267.208 108.733,264.542 108.5,261.5 Z"/></g>
<g><path style="opacity:0.682" fill="#1a1b14" d="M 199.5,286.5 C 199.665,283.482 199.498,280.482 199,277.5C 197.701,277.966 196.201,277.966 194.5,277.5C 192.284,278.203 190.451,279.536 189,281.5C 188.385,279.884 187.385,278.551 186,277.5C 185.601,277.728 185.435,278.062 185.5,278.5C 184.85,278.196 184.183,277.863 183.5,277.5C 182.999,279.655 181.999,281.322 180.5,282.5C 180.5,280.833 180.5,279.167 180.5,277.5C 177.941,277.802 175.607,277.468 173.5,276.5C 173.5,275.833 173.833,275.5 174.5,275.5C 179.493,276.756 184.493,276.256 189.5,274C 194.201,272.472 196.868,269.305 197.5,264.5C 198.278,266.664 198.612,268.83 198.5,271C 201.167,273 203.833,273 206.5,271C 209.133,266.533 209.133,262.033 206.5,257.5C 202.334,250.754 196.334,247.087 188.5,246.5C 188.623,249.588 187.623,252.255 185.5,254.5C 189.282,255.705 192.948,257.205 196.5,259C 197.252,259.671 197.586,260.504 197.5,261.5C 192.161,259.742 187.161,257.242 182.5,254C 185.095,252.28 186.595,249.78 187,246.5C 188.017,231.507 188.85,231.174 189.5,245.5C 190.833,245.5 192.167,245.5 193.5,245.5C 194.174,240.053 193.008,235.053 190,230.5C 188.701,229.02 187.034,228.354 185,228.5C 181.218,229.143 177.718,230.476 174.5,232.5C 171.607,230.686 168.607,230.353 165.5,231.5C 164.865,234.992 163.865,238.325 162.5,241.5C 159.574,242.698 156.574,243.698 153.5,244.5C 152.508,244.672 151.842,244.338 151.5,243.5C 156.718,243.225 160.718,240.892 163.5,236.5C 161.573,230.274 160.073,223.941 159,217.5C 158.444,219.595 157.944,219.762 157.5,218C 161.151,209.614 159.984,202.114 154,195.5C 153.722,196.416 153.222,197.082 152.5,197.5C 152.334,188.494 152.5,179.494 153,170.5C 153.333,170.167 153.667,169.833 154,169.5C 154.333,172.167 154.667,174.833 155,177.5C 157.353,172.48 156.853,167.813 153.5,163.5C 152.719,164.729 152.219,166.062 152,167.5C 151.667,161.5 151.333,155.5 151,149.5C 148.598,143.908 144.431,142.075 138.5,144C 135,146.669 131.667,149.502 128.5,152.5C 131.886,143.805 138.219,140.305 147.5,142C 152.622,145.155 154.955,149.822 154.5,156C 154.441,157.436 154.108,158.769 153.5,160C 159.511,166.429 160.011,173.262 155,180.5C 154.172,185.202 154.338,189.869 155.5,194.5C 162.679,199.719 164.346,206.385 160.5,214.5C 162.141,219.373 163.141,224.373 163.5,229.5C 167.345,227.869 171.012,228.202 174.5,230.5C 186.583,223.234 193.916,226.568 196.5,240.5C 195.472,242.56 195.472,244.56 196.5,246.5C 208.791,252.201 212.458,261.034 207.5,273C 203.75,275.043 200.084,274.877 196.5,272.5C 195.692,272.808 195.025,273.308 194.5,274C 199.085,274.418 201.419,276.918 201.5,281.5C 200.972,283.336 200.306,285.003 199.5,286.5 Z M 191.5,276.5 C 190.762,278.76 189.762,278.927 188.5,277C 189.448,276.517 190.448,276.351 191.5,276.5 Z"/></g>
<g><path style="opacity:1" fill="#df9c06" d="M 72.5,285.5 C 69.6146,285.194 66.9479,285.527 64.5,286.5C 62.5159,286.484 61.5159,287.484 61.5,289.5C 62.4649,292.128 64.1315,294.128 66.5,295.5C 64.326,295.75 62.6594,296.75 61.5,298.5C 58.7052,299.063 56.3718,300.396 54.5,302.5C 53.5707,301.685 52.5707,300.852 51.5,300C 48.0594,299.984 44.7261,299.817 41.5,299.5C 42.8333,297.833 44.1667,296.167 45.5,294.5C 48.621,291.862 50.7877,288.528 52,284.5C 51.987,277.008 52.987,269.674 55,262.5C 60.0974,255.768 64.7641,256.101 69,263.5C 70.6578,270.765 71.8244,278.098 72.5,285.5 Z"/></g>
<g><path style="opacity:1" fill="#778c31" d="M 108.5,261.5 C 108.733,264.542 109.733,267.208 111.5,269.5C 112.656,273.793 113.656,278.126 114.5,282.5C 110.713,284.452 107.713,287.286 105.5,291C 103.008,293.112 100.342,293.612 97.5,292.5C 99.6107,291.264 101.611,289.764 103.5,288C 101.544,288.222 99.7103,289.055 98,290.5C 96.2627,288.375 94.096,287.542 91.5,288C 93.3325,288.748 94.9991,289.748 96.5,291C 93.5184,291.498 90.5184,291.665 87.5,291.5C 87.4894,289.983 86.8228,288.816 85.5,288C 93.656,282.163 100.323,274.996 105.5,266.5C 106.065,264.58 107.065,262.913 108.5,261.5 Z"/></g>
<g><path style="opacity:1" fill="#080a04" d="M 185.5,278.5 C 187.164,281.866 187.997,285.533 188,289.5C 188.29,287.048 188.956,284.715 190,282.5C 191.707,280.963 193.207,279.296 194.5,277.5C 196.201,277.966 197.701,277.966 199,277.5C 199.498,280.482 199.665,283.482 199.5,286.5C 198.581,289.089 196.914,291.089 194.5,292.5C 192.901,292.232 191.568,292.566 190.5,293.5C 190.371,295.216 190.038,296.883 189.5,298.5C 186.478,299.708 186.145,301.042 188.5,302.5C 183.993,304.113 179.327,304.779 174.5,304.5C 174.672,303.508 174.338,302.842 173.5,302.5C 174.394,297.546 176.728,293.38 180.5,290C 179.833,289.333 179.167,289.333 178.5,290C 175.769,292.626 173.936,295.793 173,299.5C 164.178,300.523 159.345,296.523 158.5,287.5C 160.414,286.815 162.414,286.315 164.5,286C 165.249,284.266 165.749,282.433 166,280.5C 166.708,279.619 167.542,278.953 168.5,278.5C 168.833,278.5 169.167,278.5 169.5,278.5C 170.725,279.937 171.725,281.604 172.5,283.5C 173.667,283.833 174.833,284.167 176,284.5C 178.008,284.693 179.508,284.026 180.5,282.5C 181.999,281.322 182.999,279.655 183.5,277.5C 184.183,277.863 184.85,278.196 185.5,278.5 Z"/></g>
<g><path style="opacity:1" fill="#171814" d="M 111.5,269.5 C 114.695,274.257 116.361,279.591 116.5,285.5C 115.833,284.5 115.167,283.5 114.5,282.5C 113.656,278.126 112.656,273.793 111.5,269.5 Z"/></g>
<g><path style="opacity:1" fill="#bb9f7e" d="M 173.5,276.5 C 175.607,277.468 177.941,277.802 180.5,277.5C 180.5,279.167 180.5,280.833 180.5,282.5C 179.508,284.026 178.008,284.693 176,284.5C 174.833,284.167 173.667,283.833 172.5,283.5C 171.725,281.604 170.725,279.937 169.5,278.5C 170.183,276.824 171.517,276.157 173.5,276.5 Z"/></g>
<g><path style="opacity:0.557" fill="#18170d" d="M 36.5,203.5 C 40.5475,208.422 43.3808,214.088 45,220.5C 45.4643,219.906 45.631,219.239 45.5,218.5C 46.404,219.209 46.7373,220.209 46.5,221.5C 47.196,228.93 48.5293,236.263 50.5,243.5C 52.6866,241.578 55.0199,239.912 57.5,238.5C 57.8417,239.338 58.5084,239.672 59.5,239.5C 53.3109,243.176 47.8109,247.842 43,253.5C 33.3479,266.483 33.0146,279.816 42,293.5C 43.1455,294.684 44.3121,294.684 45.5,293.5C 45.5,293.833 45.5,294.167 45.5,294.5C 44.1667,296.167 42.8333,297.833 41.5,299.5C 31.9367,305.561 23.4367,312.894 16,321.5C 11.3217,328.209 9.82167,335.542 11.5,343.5C 12.7746,349.056 16.1079,352.723 21.5,354.5C 22.1667,354.167 22.8333,353.833 23.5,353.5C 21.6666,348.362 20.9999,343.028 21.5,337.5C 22.3104,330.883 24.9771,325.216 29.5,320.5C 27.0032,324.497 25.3366,328.83 24.5,333.5C 23.596,334.209 23.2627,335.209 23.5,336.5C 22.2344,343.803 23.401,350.803 27,357.5C 28.3712,359.041 29.8712,360.375 31.5,361.5C 36.0463,364.357 39.8797,363.357 43,358.5C 43.9832,345.899 47.1498,333.899 52.5,322.5C 54.9507,318.876 57.6174,315.376 60.5,312C 58.8925,312.019 57.2259,312.185 55.5,312.5C 53.0095,311.892 51.6762,310.225 51.5,307.5C 52.0924,305.577 53.0924,303.911 54.5,302.5C 56.3718,300.396 58.7052,299.063 61.5,298.5C 58.2148,301.118 55.2148,304.118 52.5,307.5C 52.7093,308.086 53.0426,308.586 53.5,309C 57.3169,310.023 60.8169,309.523 64,307.5C 62.1533,311.517 59.9867,315.517 57.5,319.5C 57.6082,320.442 57.9415,321.275 58.5,322C 61.146,322.497 63.8127,322.664 66.5,322.5C 63.1584,325.268 59.6584,327.934 56,330.5C 55.2506,331.635 55.4173,332.635 56.5,333.5C 64.3048,335.35 70.1381,332.684 74,325.5C 74.6667,326.5 74.6667,327.5 74,328.5C 70.7239,331.103 68.2239,334.27 66.5,338C 66.7336,339.732 67.7336,340.566 69.5,340.5C 73.1389,338.526 76.1389,335.86 78.5,332.5C 78.5674,333.959 78.2341,335.292 77.5,336.5C 76.7109,336.783 76.0442,337.283 75.5,338C 76.7375,338.232 77.7375,338.732 78.5,339.5C 73.1603,339.665 69.6603,342.332 68,347.5C 67.5065,349.134 67.3398,350.801 67.5,352.5C 66.5655,353.568 66.2322,354.901 66.5,356.5C 64.828,351.914 65.4947,347.58 68.5,343.5C 68.0431,342.702 67.3764,342.369 66.5,342.5C 64.8241,340.233 64.1575,337.9 64.5,335.5C 51.9492,335.876 46.4492,342.209 48,354.5C 48.8159,355.823 49.9826,356.489 51.5,356.5C 51.9175,357.222 52.5842,357.722 53.5,358C 56.4816,358.498 59.4816,358.665 62.5,358.5C 60.7078,359.309 58.7078,359.809 56.5,360C 58.8098,360.497 61.1432,360.663 63.5,360.5C 57.4353,362.214 51.9353,360.881 47,356.5C 44.9993,359.331 42.8327,361.997 40.5,364.5C 37.5,364.5 34.5,364.5 31.5,364.5C 29.0626,362.567 26.7293,360.4 24.5,358C 14.21,355.545 8.87666,349.045 8.5,338.5C 9.49923,326.336 14.8326,316.503 24.5,309C 30.3467,304.909 36.0133,300.576 41.5,296C 34.4026,287.056 32.0692,277.056 34.5,266C 27.3555,263.262 21.0222,259.262 15.5,254C 9.13847,247.153 3.80513,239.653 -0.5,231.5C -0.5,227.833 -0.5,224.167 -0.5,220.5C 3.05194,218.132 6.7186,217.965 10.5,220C 15.3004,225.802 20.467,231.302 26,236.5C 23.7632,230.095 22.0966,223.429 21,216.5C 20.3388,211.442 20.6721,206.442 22,201.5C 24.8897,197.172 28.7231,196.339 33.5,199C 35.1412,200.129 36.1412,201.629 36.5,203.5 Z M 55.5,320.5 C 56.363,322.76 58.0297,324.26 60.5,325C 55.3002,326.332 53.3002,329.499 54.5,334.5C 53.6401,336.272 52.3068,337.605 50.5,338.5C 49.7942,336.234 49.9609,333.901 51,331.5C 52.0521,327.595 53.5521,323.929 55.5,320.5 Z"/></g>
<g><path style="opacity:1" fill="#889835" d="M 37.5,250.5 C 37.9195,252.094 38.5862,253.594 39.5,255C 37.4761,257.881 36.1427,261.047 35.5,264.5C 20.5502,257.049 9.38355,245.716 2,230.5C -0.912626,221.428 1.92071,218.594 10.5,222C 17.9602,232.96 26.9602,242.46 37.5,250.5 Z"/></g>
<g><path style="opacity:1" fill="#798d32" d="M 48.5,244.5 C 46.205,247.297 43.705,249.964 41,252.5C 40.1841,251.177 39.0174,250.511 37.5,250.5C 29.1024,239.317 24.4357,226.65 23.5,212.5C 24.29,211.391 24.79,210.058 25,208.5C 26,209.167 27,209.833 28,210.5C 31.6294,218.746 35.6294,226.746 40,234.5C 42.698,238.025 45.5314,241.358 48.5,244.5 Z"/></g>
<g><path style="opacity:1" fill="#879832" d="M 36.5,203.5 C 42.5224,216.568 46.5224,230.235 48.5,244.5C 45.5314,241.358 42.698,238.025 40,234.5C 35.6294,226.746 31.6294,218.746 28,210.5C 27,209.833 26,209.167 25,208.5C 24.79,210.058 24.29,211.391 23.5,212.5C 23.021,208.089 23.6876,203.922 25.5,200C 29.9233,198.882 33.59,200.049 36.5,203.5 Z"/></g>
<g><path style="opacity:1" fill="#181a0f" d="M 105.5,266.5 C 100.323,274.996 93.656,282.163 85.5,288C 86.8228,288.816 87.4894,289.983 87.5,291.5C 84.9138,290.362 83.2471,288.362 82.5,285.5C 83.8734,285.657 85.2068,285.49 86.5,285C 93.758,279.744 99.5914,273.244 104,265.5C 105.107,264.288 105.607,264.621 105.5,266.5 Z"/></g>
<g><path style="opacity:1" fill="#2a5a86" d="M 194.5,277.5 C 193.207,279.296 191.707,280.963 190,282.5C 188.956,284.715 188.29,287.048 188,289.5C 187.997,285.533 187.164,281.866 185.5,278.5C 185.435,278.062 185.601,277.728 186,277.5C 187.385,278.551 188.385,279.884 189,281.5C 190.451,279.536 192.284,278.203 194.5,277.5 Z"/></g>
<g><path style="opacity:1" fill="#20405b" d="M 168.5,278.5 C 167.542,278.953 166.708,279.619 166,280.5C 165.749,282.433 165.249,284.266 164.5,286C 162.414,286.315 160.414,286.815 158.5,287.5C 159.048,284.916 160.715,283.916 163.5,284.5C 163.491,282.692 163.991,281.025 165,279.5C 166.041,277.689 167.207,277.355 168.5,278.5 Z"/></g>
<g><path style="opacity:1" fill="#171404" d="M 64.5,286.5 C 66.8312,286.859 66.6645,287.526 64,288.5C 63.3333,289.5 63.3333,290.5 64,291.5C 65.7803,292.594 67.6136,293.594 69.5,294.5C 68.675,295.386 67.675,295.719 66.5,295.5C 64.1315,294.128 62.4649,292.128 61.5,289.5C 61.5159,287.484 62.5159,286.484 64.5,286.5 Z"/></g>
<g><path style="opacity:1" fill="#242b10" d="M 97.5,292.5 C 97.1667,292.5 96.8333,292.5 96.5,292.5C 93.1812,294.096 90.1812,293.762 87.5,291.5C 90.5184,291.665 93.5184,291.498 96.5,291C 94.9991,289.748 93.3325,288.748 91.5,288C 94.096,287.542 96.2627,288.375 98,290.5C 99.7103,289.055 101.544,288.222 103.5,288C 101.611,289.764 99.6107,291.264 97.5,292.5 Z"/></g>
<g><path style="opacity:1" fill="#7b8e31" d="M 82.5,285.5 C 83.2471,288.362 84.9138,290.362 87.5,291.5C 90.1812,293.762 93.1812,294.096 96.5,292.5C 99.0392,293.907 98.7058,295.073 95.5,296C 89.7722,296.183 84.1056,295.85 78.5,295C 73.8486,299.593 70.682,305.093 69,311.5C 65.3807,313.863 63.5474,317.196 63.5,321.5C 64.5,321.5 65.5,321.5 66.5,321.5C 66.5,321.833 66.5,322.167 66.5,322.5C 63.8127,322.664 61.146,322.497 58.5,322C 57.9415,321.275 57.6082,320.442 57.5,319.5C 59.9867,315.517 62.1533,311.517 64,307.5C 60.8169,309.523 57.3169,310.023 53.5,309C 53.0426,308.586 52.7093,308.086 52.5,307.5C 55.2148,304.118 58.2148,301.118 61.5,298.5C 62.6594,296.75 64.326,295.75 66.5,295.5C 67.675,295.719 68.675,295.386 69.5,294.5C 67.6136,293.594 65.7803,292.594 64,291.5C 63.3333,290.5 63.3333,289.5 64,288.5C 66.6645,287.526 66.8312,286.859 64.5,286.5C 66.9479,285.527 69.6146,285.194 72.5,285.5C 72.56,286.043 72.8933,286.376 73.5,286.5C 74.4656,284.604 74.7989,282.604 74.5,280.5C 75.8734,280.343 77.2068,280.51 78.5,281C 79.7332,282.667 81.0665,284.167 82.5,285.5 Z"/></g>
<g><path style="opacity:1" fill="#336da6" d="M 190.5,293.5 C 191.376,293.369 192.043,293.702 192.5,294.5C 191.965,296.261 190.965,297.594 189.5,298.5C 190.038,296.883 190.371,295.216 190.5,293.5 Z"/></g>
<g><path style="opacity:1" fill="#8d9d33" d="M 125.5,315.5 C 126.449,312.128 126.449,308.795 125.5,305.5C 127.836,304.406 127.836,303.073 125.5,301.5C 122.897,300.438 120.23,300.272 117.5,301C 110.489,306.402 102.489,309.068 93.5,309C 90.3821,310.059 87.3821,311.392 84.5,313C 83.7798,315.491 83.1131,317.991 82.5,320.5C 79.8544,319.513 77.1878,318.513 74.5,317.5C 73.4777,317.855 72.811,318.522 72.5,319.5C 70.5,320.167 68.5,320.833 66.5,321.5C 65.5,321.5 64.5,321.5 63.5,321.5C 63.5474,317.196 65.3807,313.863 69,311.5C 70.682,305.093 73.8486,299.593 78.5,295C 84.1056,295.85 89.7722,296.183 95.5,296C 98.7058,295.073 99.0392,293.907 96.5,292.5C 96.8333,292.5 97.1667,292.5 97.5,292.5C 100.342,293.612 103.008,293.112 105.5,291C 107.713,287.286 110.713,284.452 114.5,282.5C 115.167,283.5 115.833,284.5 116.5,285.5C 116.386,289.694 117.886,293.027 121,295.5C 122.944,294.561 124.611,293.227 126,291.5C 128.007,287.465 130.007,283.465 132,279.5C 134.421,286.985 135.088,294.652 134,302.5C 132.659,307.858 129.826,312.191 125.5,315.5 Z"/></g>
<g><path style="opacity:1" fill="#2a5983" d="M 158.5,287.5 C 159.345,296.523 164.178,300.523 173,299.5C 173.936,295.793 175.769,292.626 178.5,290C 179.167,289.333 179.833,289.333 180.5,290C 176.728,293.38 174.394,297.546 173.5,302.5C 171.073,302.477 168.74,301.977 166.5,301C 159.566,298.65 156.9,294.15 158.5,287.5 Z"/></g>
<g><path style="opacity:1" fill="#0a0d07" d="M 190.5,293.5 C 191.568,292.566 192.901,292.232 194.5,292.5C 193.588,293.738 193.421,295.072 194,296.5C 208.703,305.907 214.703,319.24 212,336.5C 210.954,338.09 209.787,339.59 208.5,341C 210.15,344.485 212.15,347.651 214.5,350.5C 214.5,352.833 214.5,355.167 214.5,357.5C 211.315,359.832 207.981,359.999 204.5,358C 202.419,353.836 200.086,349.836 197.5,346C 192.848,345.13 188.514,343.63 184.5,341.5C 186.716,340.97 188.882,341.637 191,343.5C 191.308,342.692 191.808,342.025 192.5,341.5C 193.451,342.326 194.451,342.492 195.5,342C 194.211,340.198 192.544,339.031 190.5,338.5C 187.124,332.415 184.291,326.081 182,319.5C 182.274,326.152 184.44,332.152 188.5,337.5C 186.249,338.865 184.249,338.531 182.5,336.5C 177.326,328.98 174.326,320.647 173.5,311.5C 173.5,309.5 173.5,307.5 173.5,305.5C 179.42,306.775 185.086,305.942 190.5,303C 192.007,302.163 192.507,300.996 192,299.5C 190.961,300.71 189.794,301.71 188.5,302.5C 186.145,301.042 186.478,299.708 189.5,298.5C 190.965,297.594 191.965,296.261 192.5,294.5C 192.043,293.702 191.376,293.369 190.5,293.5 Z"/></g>
<g><path style="opacity:1" fill="#98a435" d="M 125.5,315.5 C 123.287,317.86 120.621,319.694 117.5,321C 105.677,325.675 94.0105,325.508 82.5,320.5C 83.1131,317.991 83.7798,315.491 84.5,313C 87.3821,311.392 90.3821,310.059 93.5,309C 102.489,309.068 110.489,306.402 117.5,301C 120.23,300.272 122.897,300.438 125.5,301.5C 127.836,303.073 127.836,304.406 125.5,305.5C 126.449,308.795 126.449,312.128 125.5,315.5 Z"/></g>
<g><path style="opacity:1" fill="#2f6598" d="M 173.5,305.5 C 173.5,304.833 173.833,304.5 174.5,304.5C 179.327,304.779 183.993,304.113 188.5,302.5C 189.794,301.71 190.961,300.71 192,299.5C 192.507,300.996 192.007,302.163 190.5,303C 185.086,305.942 179.42,306.775 173.5,305.5 Z"/></g>
<g><path style="opacity:1" fill="#e1a002" d="M 41.5,299.5 C 44.7261,299.817 48.0594,299.984 51.5,300C 52.5707,300.852 53.5707,301.685 54.5,302.5C 53.0924,303.911 52.0924,305.577 51.5,307.5C 51.6762,310.225 53.0095,311.892 55.5,312.5C 54.3915,313.29 53.0581,313.79 51.5,314C 50.1196,315.925 48.6196,317.759 47,319.5C 42.5569,329.478 37.7235,339.311 32.5,349C 29.7202,349.269 27.5536,348.102 26,345.5C 25.1588,342.372 24.3254,339.372 23.5,336.5C 23.2627,335.209 23.596,334.209 24.5,333.5C 24.4346,333.938 24.6012,334.272 25,334.5C 25.3333,333.833 25.6667,333.167 26,332.5C 26.7889,335.834 27.9556,339.001 29.5,342C 30.8989,342.595 32.2322,342.428 33.5,341.5C 38.6239,329.919 44.2905,318.586 50.5,307.5C 49.2555,307.247 47.7555,306.581 46,305.5C 44.1118,305.796 42.2784,306.296 40.5,307C 36.7366,310.177 34.2366,313.677 33,317.5C 31.9609,318.71 30.7942,319.71 29.5,320.5C 24.9771,325.216 22.3104,330.883 21.5,337.5C 20.6862,339.631 20.1862,341.964 20,344.5C 19.6667,343.167 19.3333,341.833 19,340.5C 16.5774,340.934 14.0774,341.934 11.5,343.5C 9.82167,335.542 11.3217,328.209 16,321.5C 23.4367,312.894 31.9367,305.561 41.5,299.5 Z"/></g>
<g><path style="opacity:1" fill="#e7ad00" d="M 24.5,333.5 C 25.3366,328.83 27.0032,324.497 29.5,320.5C 30.7942,319.71 31.9609,318.71 33,317.5C 34.2366,313.677 36.7366,310.177 40.5,307C 42.2784,306.296 44.1118,305.796 46,305.5C 47.7555,306.581 49.2555,307.247 50.5,307.5C 44.2905,318.586 38.6239,329.919 33.5,341.5C 32.2322,342.428 30.8989,342.595 29.5,342C 27.9556,339.001 26.7889,335.834 26,332.5C 25.6667,333.167 25.3333,333.833 25,334.5C 24.6012,334.272 24.4346,333.938 24.5,333.5 Z"/></g>
<g><path style="opacity:1" fill="#3471ab" d="M 173.5,311.5 C 174.326,320.647 177.326,328.98 182.5,336.5C 175.926,330.347 172.259,322.681 171.5,313.5C 171.233,311.024 171.899,310.357 173.5,311.5 Z"/></g>
<g><path style="opacity:1" fill="#131606" d="M 72.5,319.5 C 71.089,321.539 69.089,322.539 66.5,322.5C 66.5,322.167 66.5,321.833 66.5,321.5C 68.5,320.833 70.5,320.167 72.5,319.5 Z"/></g>
<g><path style="opacity:1" fill="#30679a" d="M 197.5,314.5 C 203.316,322.123 205.816,330.79 205,340.5C 204.581,341.672 203.915,342.672 203,343.5C 204.072,333.355 202.238,323.688 197.5,314.5 Z"/></g>
<g><path style="opacity:1" fill="#798d32" d="M 72.5,319.5 C 77.4783,321.319 82.4783,323.153 87.5,325C 93.4348,326.239 99.4348,326.739 105.5,326.5C 105.67,327.822 105.337,328.989 104.5,330C 101.112,330.659 97.7786,330.492 94.5,329.5C 93.8595,327.668 92.8595,327.335 91.5,328.5C 92.2458,329.736 92.5792,331.07 92.5,332.5C 92.5,334.5 92.5,336.5 92.5,338.5C 91.1667,338.5 89.8333,338.5 88.5,338.5C 84.5147,336.679 81.6814,333.679 80,329.5C 78.9614,330.244 78.4614,331.244 78.5,332.5C 76.1389,335.86 73.1389,338.526 69.5,340.5C 67.7336,340.566 66.7336,339.732 66.5,338C 68.2239,334.27 70.7239,331.103 74,328.5C 74.6667,327.5 74.6667,326.5 74,325.5C 70.1381,332.684 64.3048,335.35 56.5,333.5C 55.4173,332.635 55.2506,331.635 56,330.5C 59.6584,327.934 63.1584,325.268 66.5,322.5C 69.089,322.539 71.089,321.539 72.5,319.5 Z"/></g>
<g><path style="opacity:1" fill="#d78a10" d="M 122.5,327.5 C 123.622,329.288 123.789,331.288 123,333.5C 119.243,338.249 114.577,341.916 109,344.5C 108.667,343.5 108.333,342.5 108,341.5C 102.163,356.921 91.3299,363.588 75.5,361.5C 81.184,360.274 86.8506,358.941 92.5,357.5C 93.8149,355.684 95.3149,354.017 97,352.5C 100.397,340.307 107.897,331.973 119.5,327.5C 120.647,327.818 121.481,328.484 122,329.5C 122.464,328.906 122.631,328.239 122.5,327.5 Z"/></g>
<g><path style="opacity:1" fill="#141405" d="M 94.5,329.5 C 94.1949,331.919 94.1949,334.586 94.5,337.5C 93.8333,335.833 93.1667,334.167 92.5,332.5C 92.5792,331.07 92.2458,329.736 91.5,328.5C 92.8595,327.335 93.8595,327.668 94.5,329.5 Z"/></g>
<g><path style="opacity:1" fill="#2c5d8a" d="M 190.5,338.5 C 189.833,338.167 189.167,337.833 188.5,337.5C 184.44,332.152 182.274,326.152 182,319.5C 184.291,326.081 187.124,332.415 190.5,338.5 Z"/></g>
<g><path style="opacity:1" fill="#181606" d="M 88.5,338.5 C 88.1583,339.338 87.4916,339.672 86.5,339.5C 86.1667,339.5 85.8333,339.5 85.5,339.5C 83.5,338.833 81.5,338.167 79.5,337.5C 80.552,337.649 81.552,337.483 82.5,337C 81.7171,334.882 80.3838,333.382 78.5,332.5C 78.4614,331.244 78.9614,330.244 80,329.5C 81.6814,333.679 84.5147,336.679 88.5,338.5 Z"/></g>
<g><path style="opacity:1" fill="#de9a07" d="M 122.5,327.5 C 122.631,328.239 122.464,328.906 122,329.5C 121.481,328.484 120.647,327.818 119.5,327.5C 107.897,331.973 100.397,340.307 97,352.5C 95.3149,354.017 93.8149,355.684 92.5,357.5C 86.8506,358.941 81.184,360.274 75.5,361.5C 71.9111,360.908 69.5778,358.908 68.5,355.5C 77.1916,357.468 85.525,356.634 93.5,353C 96.9156,348.606 97.9156,343.773 96.5,338.5C 96.0431,337.702 95.3764,337.369 94.5,337.5C 94.1949,334.586 94.1949,331.919 94.5,329.5C 95.0577,330.79 96.0577,331.623 97.5,332C 103.016,333.925 106.349,332.091 107.5,326.5C 110.828,325.501 114.161,324.501 117.5,323.5C 119.761,324.095 121.428,325.429 122.5,327.5 Z"/></g>
<g><path style="opacity:1" fill="#d78f0e" d="M 78.5,332.5 C 80.3838,333.382 81.7171,334.882 82.5,337C 81.552,337.483 80.552,337.649 79.5,337.5C 78.5084,337.672 77.8417,337.338 77.5,336.5C 78.2341,335.292 78.5674,333.959 78.5,332.5 Z"/></g>
<g><path style="opacity:1" fill="#db900f" d="M 66.5,342.5 C 62.8751,343.329 59.2084,344.162 55.5,345C 52.0337,348.04 50.7004,351.874 51.5,356.5C 49.9826,356.489 48.8159,355.823 48,354.5C 46.4492,342.209 51.9492,335.876 64.5,335.5C 64.1575,337.9 64.8241,340.233 66.5,342.5 Z"/></g>
<g><path style="opacity:1" fill="#6f4f02" d="M 77.5,336.5 C 77.8417,337.338 78.5084,337.672 79.5,337.5C 81.5,338.167 83.5,338.833 85.5,339.5C 83.1667,339.5 80.8333,339.5 78.5,339.5C 77.7375,338.732 76.7375,338.232 75.5,338C 76.0442,337.283 76.7109,336.783 77.5,336.5 Z"/></g>
<g><path style="opacity:1" fill="#463e0f" d="M 92.5,332.5 C 93.1667,334.167 93.8333,335.833 94.5,337.5C 92.3846,340.517 89.718,341.184 86.5,339.5C 87.4916,339.672 88.1583,339.338 88.5,338.5C 89.8333,338.5 91.1667,338.5 92.5,338.5C 92.5,336.5 92.5,334.5 92.5,332.5 Z"/></g>
<g><path style="opacity:1" fill="#d28a0f" d="M 21.5,337.5 C 20.9999,343.028 21.6666,348.362 23.5,353.5C 22.8333,353.833 22.1667,354.167 21.5,354.5C 16.1079,352.723 12.7746,349.056 11.5,343.5C 14.0774,341.934 16.5774,340.934 19,340.5C 19.3333,341.833 19.6667,343.167 20,344.5C 20.1862,341.964 20.6862,339.631 21.5,337.5 Z"/></g>
<g><path style="opacity:1" fill="#d68213" d="M 52.5,322.5 C 47.1498,333.899 43.9832,345.899 43,358.5C 39.8797,363.357 36.0463,364.357 31.5,361.5C 31.4894,359.983 30.8228,358.816 29.5,358C 30.7659,357.691 31.9326,357.191 33,356.5C 38.2483,346.418 42.915,336.085 47,325.5C 48.093,323.651 49.4263,321.984 51,320.5C 51.2784,321.416 51.7784,322.082 52.5,322.5 Z"/></g>
<g><path style="opacity:1" fill="#dd950d" d="M 52.5,322.5 C 51.7784,322.082 51.2784,321.416 51,320.5C 49.4263,321.984 48.093,323.651 47,325.5C 42.915,336.085 38.2483,346.418 33,356.5C 31.9326,357.191 30.7659,357.691 29.5,358C 30.8228,358.816 31.4894,359.983 31.5,361.5C 29.8712,360.375 28.3712,359.041 27,357.5C 23.401,350.803 22.2344,343.803 23.5,336.5C 24.3254,339.372 25.1588,342.372 26,345.5C 27.5536,348.102 29.7202,349.269 32.5,349C 37.7235,339.311 42.5569,329.478 47,319.5C 48.6196,317.759 50.1196,315.925 51.5,314C 53.0581,313.79 54.3915,313.29 55.5,312.5C 57.2259,312.185 58.8925,312.019 60.5,312C 57.6174,315.376 54.9507,318.876 52.5,322.5 Z"/></g>
<g><path style="opacity:1" fill="#b89d7c" d="M 205.5,341.5 C 208.804,344.753 211.138,348.753 212.5,353.5C 210.957,356.253 208.624,357.087 205.5,356C 203.375,352.918 201.375,349.751 199.5,346.5C 201.113,345.573 202.779,344.739 204.5,344C 205.252,343.329 205.586,342.496 205.5,341.5 Z"/></g>
<g><path style="opacity:1" fill="#e3a600" d="M 66.5,342.5 C 67.3764,342.369 68.0431,342.702 68.5,343.5C 65.4947,347.58 64.828,351.914 66.5,356.5C 65.8166,358.176 64.4832,358.843 62.5,358.5C 59.4816,358.665 56.4816,358.498 53.5,358C 52.5842,357.722 51.9175,357.222 51.5,356.5C 50.7004,351.874 52.0337,348.04 55.5,345C 59.2084,344.162 62.8751,343.329 66.5,342.5 Z"/></g>
<g><path style="opacity:1" fill="#e7ac00" d="M 94.5,337.5 C 95.3764,337.369 96.0431,337.702 96.5,338.5C 97.9156,343.773 96.9156,348.606 93.5,353C 85.525,356.634 77.1916,357.468 68.5,355.5C 67.596,354.791 67.2627,353.791 67.5,352.5C 67.3398,350.801 67.5065,349.134 68,347.5C 69.6603,342.332 73.1603,339.665 78.5,339.5C 80.8333,339.5 83.1667,339.5 85.5,339.5C 85.8333,339.5 86.1667,339.5 86.5,339.5C 89.718,341.184 92.3846,340.517 94.5,337.5 Z"/></g>
</svg>
